<?xml version="1.0" encoding="utf-8"?>
<svg version="1.1" xmlns:xlink="http://www.w3.org/1999/xlink" width="23px" height="23px" xmlns="http://www.w3.org/2000/svg">
  <defs>
    <mask fill="white" id="clip1209">
      <path d="M 0 11.5  C 0 5.05999999999995  5.06 0  11.5 0  C 14.5657074933754 0  17.3186855357213 1.14667465377465  19.3619415715843 3.04303140587035  C 21.6108656929581 5.13026979776214  23 8.12570749337533  23 11.5  C 23 17.9400000000001  17.94 23  11.5 23  C 5.06 23  0 17.9400000000001  0 11.5  Z " fill-rule="evenodd" />
    </mask>
  </defs>
  <g transform="matrix(1 0 0 1 -27 -1363 )">
    <path d="M 0 11.5  C 0 5.05999999999995  5.06 0  11.5 0  C 14.5657074933754 0  17.3186855357213 1.14667465377465  19.3619415715843 3.04303140587035  C 21.6108656929581 5.13026979776214  23 8.12570749337533  23 11.5  C 23 17.9400000000001  17.94 23  11.5 23  C 5.06 23  0 17.9400000000001  0 11.5  Z " fill-rule="nonzero" fill="#ff6699" stroke="none" transform="matrix(1 0 0 1 27 1363 )" />
    <path d="M 0 11.5  C 0 5.05999999999995  5.06 0  11.5 0  C 14.5657074933754 0  17.3186855357213 1.14667465377465  19.3619415715843 3.04303140587035  C 21.6108656929581 5.13026979776214  23 8.12570749337533  23 11.5  C 23 17.9400000000001  17.94 23  11.5 23  C 5.06 23  0 17.9400000000001  0 11.5  Z " stroke-width="4" stroke="#ff9933" fill="none" transform="matrix(1 0 0 1 27 1363 )" mask="url(#clip1209)" />
  </g>
</svg>