<?xml version="1.0" encoding="utf-8"?>
<svg version="1.1" xmlns:xlink="http://www.w3.org/1999/xlink" width="15px" height="14px" xmlns="http://www.w3.org/2000/svg">
  <g transform="matrix(1 0 0 1 -75 -634 )">
    <path d="M 12.5195429945881 7.68607954545455  C 12.6398075766687 7.73910984848485  12.699939867709 7.83522727272727  12.699939867709 7.97443181818182  L 12.699939867709 11.1363636363636  C 12.699939867709 11.9251893939394  12.4458809380637 12.5996685606061  11.9377630787733 13.1598011363636  C 11.4296452194829 13.7199337121212  10.8177991581479 14  10.1022248947685 14  L 2.59771497294047 14  C 1.88214070956103 14  1.2702946482261 13.7199337121212  0.762176788935658 13.1598011363636  C 0.254058929645219 12.5996685606061  0 11.9251893939394  0 11.1363636363636  L 0 2.86363636363636  C 0 2.0748106060606  0.254058929645219 1.40033143939394  0.762176788935658 0.840198863636364  C 1.2702946482261 0.280066287878787  1.88214070956103 0  2.59771497294047 0  L 10.1022248947685 0  C 10.4810583283223 0  10.832832230908 0.0828598484848477  11.1575466025256 0.248579545454545  C 11.247745039086 0.29498106060606  11.3018641010222 0.371212121212121  11.3199037883343 0.477272727272727  C 11.3379434756464 0.589962121212121  11.3108839446783 0.686079545454545  11.2387251954299 0.765625  L 10.7967528562838 1.25284090909091  C 10.7366205652435 1.31912878787879  10.6674684305472 1.35227272727273  10.5892964521948 1.35227272727273  C 10.5712567648827 1.35227272727273  10.5441972339146 1.34564393939394  10.5081178592904 1.33238636363636  C 10.3698135898978 1.29261363636364  10.2345159350571 1.27272727272727  10.1022248947685 1.27272727272727  L 2.59771497294047 1.27272727272727  C 2.20084185207456 1.27272727272727  1.86109440769693 1.42850378787879  1.57847263980758 1.74005681818182  C 1.29585087191822 2.05160984848485  1.15453998797354 2.42613636363636  1.15453998797354 2.86363636363636  L 1.15453998797354 11.1363636363636  C 1.15453998797354 11.5738636363636  1.29585087191822 11.9483901515151  1.57847263980758 12.2599431818182  C 1.86109440769693 12.5714962121212  2.20084185207456 12.7272727272727  2.59771497294047 12.7272727272727  L 10.1022248947685 12.7272727272727  C 10.4990980156344 12.7272727272727  10.838845460012 12.5714962121212  11.1214672279014 12.2599431818182  C 11.4040889957907 11.9483901515151  11.5453998797354 11.5738636363636  11.5453998797354 11.1363636363636  L 11.5453998797354 8.61079545454545  C 11.5453998797354 8.52462121212121  11.5724594107035 8.45170454545455  11.6265784726398 8.39204545454545  L 12.2038484666266 7.75568181818182  C 12.2639807576669 7.68939393939394  12.3331328923632 7.65625  12.4113048707156 7.65625  C 12.4473842453397 7.65625  12.4834636199639 7.66619318181818  12.5195429945881 7.68607954545455  Z M 15 2.54545454545455  C 15 2.76420454545455  14.9278412507517 2.953125  14.783523752255 3.11221590909091  L 7.44137101623572 11.2059659090909  C 7.29705351773903 11.3650568181818  7.1256764882742 11.4446022727273  6.92723992784125 11.4446022727273  C 6.7288033674083 11.4446022727273  6.55742633794348 11.3650568181818  6.41310883944678 11.2059659090909  L 2.53457606734817 6.93039772727273  C 2.39025856885147 6.77130681818182  2.31809981960313 6.58238636363636  2.31809981960313 6.36363636363636  C 2.31809981960313 6.14488636363636  2.39025856885147 5.95596590909091  2.53457606734817 5.796875  L 3.52675886951293 4.703125  C 3.67107636800962 4.54403409090909  3.84245339747444 4.46448863636364  4.0408899579074 4.46448863636364  C 4.23932651834035 4.46448863636364  4.41070354780517 4.54403409090909  4.55502104630186 4.703125  L 6.92723992784125 7.31818181818182  L 12.7630787733013 0.884943181818182  C 12.907396271798 0.725852272727273  13.0787733012628 0.646306818181818  13.2772098616957 0.646306818181818  C 13.4756464221287 0.646306818181818  13.6470234515935 0.725852272727273  13.7913409500902 0.884943181818182  L 14.783523752255 1.97869318181818  C 14.9278412507517 2.13778409090909  15 2.32670454545455  15 2.54545454545455  Z " fill-rule="nonzero" fill="#000000" stroke="none" transform="matrix(1 0 0 1 75 634 )" />
  </g>
</svg>