<?xml version="1.0" encoding="utf-8"?>
<svg version="1.1" xmlns:xlink="http://www.w3.org/1999/xlink" width="23px" height="23px" xmlns="http://www.w3.org/2000/svg">
  <defs>
    <mask fill="white" id="clip140">
      <path d="M 0 11.5  C 0 9.50357484984863  0.486278251793806 7.63977104109563  1.34919973202125 6.01822359710081  C 3.26986086306465 2.40903873012735  7.05642515015131 0  11.5 0  C 17.9400000000001 0  23 5.05999999999995  23 11.5  C 23 17.9400000000001  17.9400000000001 23  11.5 23  C 6.21546423349344 23  1.86015378644629 19.5928404953154  0.467412110546661 14.8118649376345  C 0.162889014459893 13.7665041903159  0 12.6554642334934  0 11.5  Z " fill-rule="evenodd" />
    </mask>
  </defs>
  <g transform="matrix(1 0 0 1 -817 -834 )">
    <path d="M 0 11.5  C 0 9.50357484984863  0.486278251793806 7.63977104109563  1.34919973202125 6.01822359710081  C 3.26986086306465 2.40903873012735  7.05642515015131 0  11.5 0  C 17.9400000000001 0  23 5.05999999999995  23 11.5  C 23 17.9400000000001  17.9400000000001 23  11.5 23  C 6.21546423349344 23  1.86015378644629 19.5928404953154  0.467412110546661 14.8118649376345  C 0.162889014459893 13.7665041903159  0 12.6554642334934  0 11.5  Z " fill-rule="nonzero" fill="#ff6699" stroke="none" transform="matrix(1 0 0 1 817 834 )" />
    <path d="M 0 11.5  C 0 9.50357484984863  0.486278251793806 7.63977104109563  1.34919973202125 6.01822359710081  C 3.26986086306465 2.40903873012735  7.05642515015131 0  11.5 0  C 17.9400000000001 0  23 5.05999999999995  23 11.5  C 23 17.9400000000001  17.9400000000001 23  11.5 23  C 6.21546423349344 23  1.86015378644629 19.5928404953154  0.467412110546661 14.8118649376345  C 0.162889014459893 13.7665041903159  0 12.6554642334934  0 11.5  Z " stroke-width="4" stroke="#ff9933" fill="none" transform="matrix(1 0 0 1 817 834 )" mask="url(#clip140)" />
  </g>
</svg>