<?xml version="1.0" encoding="utf-8"?>
<svg version="1.1" xmlns:xlink="http://www.w3.org/1999/xlink" width="19px" height="17px" xmlns="http://www.w3.org/2000/svg">
  <g transform="matrix(1 0 0 1 -539 -589 )">
    <path d="M 15.8580877931449 9.33309659090909  C 16.010422930447 9.39749053030303  16.086590499098 9.51420454545454  16.086590499098 9.68323863636364  L 16.086590499098 13.5227272727273  C 16.086590499098 14.4805871212121  15.7647825215474 15.2995975378788  15.1211665664462 15.9797585227273  C 14.477550611345 16.6599195075758  13.7025456003207 17  12.7961515333734 17  L 3.29043896572459 17  C 2.38404489877731 17  1.60903988775306 16.6599195075758  0.965423932651834 15.9797585227273  C 0.321807977550611 15.2995975378788  0 14.4805871212121  0 13.5227272727273  L 0 3.47727272727273  C 0 2.51941287878788  0.321807977550611 1.70040246212121  0.965423932651834 1.02024147727273  C 1.60903988775306 0.340080492424241  2.38404489877731 0  3.29043896572459 0  L 12.7961515333734 0  C 13.2760072158749 0  13.7215874924835 0.100615530303029  14.132892363199 0.30184659090909  C 14.2471437161756 0.358191287878787  14.3156945279615 0.450757575757575  14.3385447985568 0.579545454545454  C 14.3613950691521 0.716382575757575  14.3271196632592 0.83309659090909  14.2357185808779 0.9296875  L 13.6758869512928 1.52130681818182  C 13.5997193826418 1.60179924242424  13.5121266786931 1.64204545454545  13.4131088394468 1.64204545454545  C 13.3902585688515 1.64204545454545  13.3559831629585 1.63399621212121  13.3102826217679 1.61789772727273  C 13.1350972138705 1.56960227272727  12.9637201844057 1.54545454545455  12.7961515333734 1.54545454545455  L 3.29043896572459 1.54545454545455  C 2.78773301262778 1.54545454545455  2.35738624974945 1.73461174242424  1.9993986770896 2.11292613636364  C 1.64141110442975 2.49124053030303  1.46241731809982 2.94602272727273  1.46241731809982 3.47727272727273  L 1.46241731809982 13.5227272727273  C 1.46241731809982 14.0539772727273  1.64141110442975 14.508759469697  1.9993986770896 14.8870738636364  C 2.35738624974945 15.2653882575758  2.78773301262778 15.4545454545455  3.29043896572459 15.4545454545455  L 12.7961515333734 15.4545454545455  C 13.2988574864702 15.4545454545455  13.7292042493486 15.2653882575758  14.0871918220084 14.8870738636364  C 14.4451793946683 14.508759469697  14.6241731809982 14.0539772727273  14.6241731809982 13.5227272727273  L 14.6241731809982 10.4559659090909  C 14.6241731809982 10.3513257575758  14.6584485868912 10.2627840909091  14.7269993986771 10.1903409090909  L 15.458208057727 9.41761363636364  C 15.534375626378 9.33712121212121  15.6219683303267 9.296875  15.7209861695731 9.296875  C 15.7666867107637 9.296875  15.8123872519543 9.30894886363636  15.8580877931449 9.33309659090909  Z M 19 3.09090909090909  C 19 3.35653409090909  18.9085989176188 3.5859375  18.7257967528563 3.77911931818182  L 9.42573662056524 13.6072443181818  C 9.24293445580277 13.8004261363636  9.02585688514733 13.8970170454545  8.77450390859892 13.8970170454545  C 8.52315093205051 13.8970170454545  8.30607336139507 13.8004261363636  8.12327119663259 13.6072443181818  L 3.21046301864101 8.41548295454545  C 3.02766085387853 8.22230113636364  2.93625977149729 7.99289772727273  2.93625977149729 7.72727272727273  C 2.93625977149729 7.46164772727273  3.02766085387853 7.23224431818182  3.21046301864101 7.0390625  L 4.46722790138304 5.7109375  C 4.65003006614552 5.51775568181818  4.86710763680096 5.42116477272727  5.11846061334937 5.42116477272727  C 5.36981358989778 5.42116477272727  5.58689116055322 5.51775568181818  5.76969332531569 5.7109375  L 8.77450390859892 8.88636363636364  L 16.1665664461816 1.07457386363636  C 16.3493686109441 0.881392045454546  16.5664461815995 0.784801136363636  16.8177991581479 0.784801136363636  C 17.0691521346963 0.784801136363636  17.2862297053518 0.881392045454546  17.4690318701143 1.07457386363636  L 18.7257967528563 2.40269886363636  C 18.9085989176188 2.59588068181818  19 2.82528409090909  19 3.09090909090909  Z " fill-rule="nonzero" fill="#f2f2f2" stroke="none" transform="matrix(1 0 0 1 539 589 )" />
  </g>
</svg>