<?xml version="1.0" encoding="utf-8"?>
<svg version="1.1" xmlns:xlink="http://www.w3.org/1999/xlink" width="23px" height="15px" xmlns="http://www.w3.org/2000/svg">
  <g transform="matrix(1 0 0 1 -491 -741 )">
    <path d="M 22.7695390781563 6.8944099378882  C 22.9231796927188 6.99792960662526  23 7.11697722567288  23 7.25155279503106  C 23 7.38612836438923  22.9231796927188 7.50517598343685  22.7695390781563 7.60869565217391  L 12.0300601202405 14.8447204968944  C 11.876419505678 14.9482401656315  11.6997327989312 15  11.5 15  C 11.3002672010688 15  11.123580494322 14.9482401656315  10.9699398797595 14.8447204968944  L 0.230460921843687 7.60869565217391  C 0.0768203072812294 7.50517598343685  0 7.38612836438923  0 7.25155279503106  C 0 7.11697722567288  0.0768203072812294 6.99792960662526  0.230460921843687 6.8944099378882  L 1.38276553106212 6.11801242236025  C 1.53640614562458 6.01449275362319  1.71309285237141 5.96273291925466  1.91282565130261 5.96273291925466  C 2.1125584502338 5.96273291925466  2.28924515698063 6.01449275362319  2.44288577154309 6.11801242236025  L 11.5 12.2204968944099  L 20.5571142284569 6.11801242236025  C 20.7107548430194 6.01449275362319  20.8874415497662 5.96273291925466  21.0871743486974 5.96273291925466  C 21.2869071476286 5.96273291925466  21.4635938543754 6.01449275362319  21.6172344689379 6.11801242236025  L 22.7695390781563 6.8944099378882  Z M 22.7695390781563 0.93167701863354  C 22.9231796927188 1.0351966873706  23 1.15424430641822  23 1.2888198757764  C 23 1.42339544513457  22.9231796927188 1.54244306418219  22.7695390781563 1.64596273291925  L 12.0300601202405 8.88198757763975  C 11.876419505678 8.98550724637681  11.6997327989312 9.03726708074534  11.5 9.03726708074534  C 11.3002672010688 9.03726708074534  11.123580494322 8.98550724637681  10.9699398797595 8.88198757763975  L 0.230460921843687 1.64596273291925  C 0.0768203072812294 1.54244306418219  0 1.42339544513457  0 1.2888198757764  C 0 1.15424430641822  0.0768203072812294 1.0351966873706  0.230460921843687 0.93167701863354  L 1.38276553106212 0.15527950310559  C 1.53640614562458 0.0517598343685288  1.71309285237141 0  1.91282565130261 0  C 2.1125584502338 0  2.28924515698063 0.0517598343685288  2.44288577154309 0.15527950310559  L 11.5 6.25776397515528  L 20.5571142284569 0.15527950310559  C 20.7107548430194 0.0517598343685288  20.8874415497662 0  21.0871743486974 0  C 21.2869071476286 0  21.4635938543754 0.0517598343685288  21.6172344689379 0.15527950310559  L 22.7695390781563 0.93167701863354  Z " fill-rule="nonzero" fill="#7f7f7f" stroke="none" transform="matrix(1 0 0 1 491 741 )" />
  </g>
</svg>