<?xml version="1.0" encoding="utf-8"?>
<svg version="1.1" xmlns:xlink="http://www.w3.org/1999/xlink" width="23px" height="13px" xmlns="http://www.w3.org/2000/svg">
  <g transform="matrix(1 0 0 1 -491 -591 )">
    <path d="M 22.7695390781563 11.5734989648033  C 22.9231796927188 11.6632160110421  23 11.7663906142167  23 11.8830227743271  C 23 11.9996549344375  22.9231796927188 12.1028295376121  22.7695390781563 12.1925465838509  L 21.6172344689379 12.8654244306418  C 21.4635938543754 12.9551414768806  21.2869071476286 13  21.0871743486974 13  C 20.8874415497662 13  20.7107548430194 12.9551414768806  20.5571142284569 12.8654244306418  L 11.5 7.57660455486543  L 2.44288577154309 12.8654244306418  C 2.28924515698063 12.9551414768806  2.1125584502338 13  1.91282565130261 13  C 1.71309285237141 13  1.53640614562458 12.9551414768806  1.38276553106212 12.8654244306418  L 0.230460921843687 12.1925465838509  C 0.0768203072812294 12.1028295376121  0 11.9996549344375  0 11.8830227743271  C 0 11.7663906142167  0.0768203072812294 11.6632160110421  0.230460921843687 11.5734989648033  L 10.9699398797595 5.30227743271221  C 11.123580494322 5.21256038647343  11.3002672010688 5.16770186335404  11.5 5.16770186335404  C 11.6997327989312 5.16770186335404  11.876419505678 5.21256038647343  12.0300601202405 5.30227743271221  L 22.7695390781563 11.5734989648033  Z M 22.7695390781563 6.40579710144928  C 22.9231796927188 6.49551414768806  23 6.59868875086266  23 6.71532091097308  C 23 6.83195307108351  22.9231796927188 6.93512767425811  22.7695390781563 7.02484472049689  L 21.6172344689379 7.69772256728778  C 21.4635938543754 7.78743961352657  21.2869071476286 7.83229813664596  21.0871743486974 7.83229813664596  C 20.8874415497662 7.83229813664596  20.7107548430194 7.78743961352657  20.5571142284569 7.69772256728778  L 11.5 2.40890269151139  L 2.44288577154309 7.69772256728778  C 2.28924515698063 7.78743961352657  2.1125584502338 7.83229813664596  1.91282565130261 7.83229813664596  C 1.71309285237141 7.83229813664596  1.53640614562458 7.78743961352657  1.38276553106212 7.69772256728778  L 0.230460921843687 7.02484472049689  C 0.0768203072812294 6.93512767425811  0 6.83195307108351  0 6.71532091097308  C 0 6.59868875086266  0.0768203072812294 6.49551414768806  0.230460921843687 6.40579710144928  L 10.9699398797595 0.134575569358178  C 11.123580494322 0.0448585231193916  11.3002672010688 0  11.5 0  C 11.6997327989312 0  11.876419505678 0.0448585231193916  12.0300601202405 0.134575569358178  L 22.7695390781563 6.40579710144928  Z " fill-rule="nonzero" fill="#7f7f7f" stroke="none" transform="matrix(1 0 0 1 491 591 )" />
  </g>
</svg>