<?xml version="1.0" encoding="utf-8"?>
<svg version="1.1" xmlns:xlink="http://www.w3.org/1999/xlink" width="24px" height="21px" xmlns="http://www.w3.org/2000/svg">
  <g transform="matrix(1 0 0 1 -186 -602 )">
    <path d="M 198 603  C 204.16 603  209 607.18  209 612.5  C 209 617.82  204.16 622  198 622  C 191.84 622  187 617.82  187 612.5  C 187 607.18  191.84 603  198 603  Z " fill-rule="nonzero" fill="#ff6699" stroke="none" />
    <path d="M 198 603  C 204.16 603  209 607.18  209 612.5  C 209 617.82  204.16 622  198 622  C 191.84 622  187 617.82  187 612.5  C 187 607.18  191.84 603  198 603  Z " stroke-width="2" stroke="#ff9933" fill="none" />
  </g>
</svg>