<?xml version="1.0" encoding="utf-8"?>
<svg version="1.1" xmlns:xlink="http://www.w3.org/1999/xlink" width="23px" height="23px" xmlns="http://www.w3.org/2000/svg">
  <defs>
    <mask fill="white" id="clip147">
      <path d="M 0 11.5  C 0 5.05999999999995  5.06 0  11.5 0  C 17.94 0  23 5.05999999999995  23 11.5  C 23 17.9400000000001  17.94 23  11.5 23  C 11.3127399738429 23  11.126646750616 22.9957217225892  10.941810804666 22.9872556421142  C 4.77001252202106 22.70456744168  0 17.7527399738428  0 11.5  Z " fill-rule="evenodd" />
    </mask>
  </defs>
  <g transform="matrix(1 0 0 1 -80 -936 )">
    <path d="M 0 11.5  C 0 5.05999999999995  5.06 0  11.5 0  C 17.94 0  23 5.05999999999995  23 11.5  C 23 17.9400000000001  17.94 23  11.5 23  C 11.3127399738429 23  11.126646750616 22.9957217225892  10.941810804666 22.9872556421142  C 4.77001252202106 22.70456744168  0 17.7527399738428  0 11.5  Z " fill-rule="nonzero" fill="#ff6699" stroke="none" transform="matrix(1 0 0 1 80 936 )" />
    <path d="M 0 11.5  C 0 5.05999999999995  5.06 0  11.5 0  C 17.94 0  23 5.05999999999995  23 11.5  C 23 17.9400000000001  17.94 23  11.5 23  C 11.3127399738429 23  11.126646750616 22.9957217225892  10.941810804666 22.9872556421142  C 4.77001252202106 22.70456744168  0 17.7527399738428  0 11.5  Z " stroke-width="4" stroke="#ff9933" fill="none" transform="matrix(1 0 0 1 80 936 )" mask="url(#clip147)" />
  </g>
</svg>