<?xml version="1.0" encoding="utf-8"?>
<svg version="1.1" xmlns:xlink="http://www.w3.org/1999/xlink" width="26px" height="23px" xmlns="http://www.w3.org/2000/svg">
  <g transform="matrix(1 0 0 1 -197 -519 )">
    <path d="M 210 520  C 216.72 520  222 524.62  222 530.5  C 222 536.38  216.72 541  210 541  C 203.28 541  198 536.38  198 530.5  C 198 524.62  203.28 520  210 520  Z " fill-rule="nonzero" fill="#ff6699" stroke="none" />
    <path d="M 210 520  C 216.72 520  222 524.62  222 530.5  C 222 536.38  216.72 541  210 541  C 203.28 541  198 536.38  198 530.5  C 198 524.62  203.28 520  210 520  Z " stroke-width="2" stroke="#ff9933" fill="none" />
  </g>
</svg>