<?xml version="1.0" encoding="utf-8"?>
<svg version="1.1" xmlns:xlink="http://www.w3.org/1999/xlink" width="23px" height="23px" xmlns="http://www.w3.org/2000/svg">
  <defs>
    <mask fill="white" id="clip679">
      <path d="M 0 11.5  C 0 7.76976831967386  1.69765874310119 4.50253447837508  4.37782541892537 2.41344928648232  C 6.32479047954021 0.89586610258857  8.7902316803262 0  11.5 0  C 17.94 0  23 5.05999999999995  23 11.5  C 23 14.5725387885886  21.8482093979459 17.3309528675261  19.9442805146896 19.3755899159605  C 17.8576000511383 21.6164846371566  14.8674612114114 23  11.5 23  C 5.06 23  0 17.9400000000001  0 11.5  Z " fill-rule="evenodd" />
    </mask>
  </defs>
  <g transform="matrix(1 0 0 1 -181 -912 )">
    <path d="M 0 11.5  C 0 7.76976831967386  1.69765874310119 4.50253447837508  4.37782541892537 2.41344928648232  C 6.32479047954021 0.89586610258857  8.7902316803262 0  11.5 0  C 17.94 0  23 5.05999999999995  23 11.5  C 23 14.5725387885886  21.8482093979459 17.3309528675261  19.9442805146896 19.3755899159605  C 17.8576000511383 21.6164846371566  14.8674612114114 23  11.5 23  C 5.06 23  0 17.9400000000001  0 11.5  Z " fill-rule="nonzero" fill="#ff6699" stroke="none" transform="matrix(1 0 0 1 181 912 )" />
    <path d="M 0 11.5  C 0 7.76976831967386  1.69765874310119 4.50253447837508  4.37782541892537 2.41344928648232  C 6.32479047954021 0.89586610258857  8.7902316803262 0  11.5 0  C 17.94 0  23 5.05999999999995  23 11.5  C 23 14.5725387885886  21.8482093979459 17.3309528675261  19.9442805146896 19.3755899159605  C 17.8576000511383 21.6164846371566  14.8674612114114 23  11.5 23  C 5.06 23  0 17.9400000000001  0 11.5  Z " stroke-width="4" stroke="#ff9933" fill="none" transform="matrix(1 0 0 1 181 912 )" mask="url(#clip679)" />
  </g>
</svg>