<?xml version="1.0" encoding="utf-8"?>
<svg version="1.1" xmlns:xlink="http://www.w3.org/1999/xlink" width="29px" height="13px" xmlns="http://www.w3.org/2000/svg">
  <g transform="matrix(1 0 0 1 -863 -1755 )">
    <path d="M 28.7094188376754 1.34020618556701  C 28.9031396125585 1.48911798396334  29 1.66036655211913  29 1.85395189003436  C 29 2.0475372279496  28.9031396125585 2.21878579610538  28.7094188376754 2.36769759450172  L 15.1683366733467 12.7766323024055  C 14.9746158984636 12.9255441008018  14.751837007348 13  14.5 13  C 14.248162992652 13  14.0253841015364 12.9255441008018  13.8316633266533 12.7766323024055  L 0.290581162324649 2.36769759450172  C 0.0968603874415501 2.21878579610538  0 2.0475372279496  0 1.85395189003436  C 0 1.66036655211913  0.0968603874415501 1.48911798396334  0.290581162324649 1.34020618556701  L 1.7434869739479 0.223367697594502  C 1.937207748831 0.0744558991981655  2.15998663994656 0  2.41182364729459 0  C 2.66366065464262 0  2.88643954575818 0.0744558991981655  3.08016032064128 0.223367697594502  L 14.5 9.00171821305842  L 25.9198396793587 0.223367697594502  C 26.1135604542418 0.0744558991981655  26.3363393453574 0  26.5881763527054 0  C 26.8400133600534 0  27.062792251169 0.0744558991981655  27.2565130260521 0.223367697594502  L 28.7094188376754 1.34020618556701  Z " fill-rule="nonzero" fill="#7f7f7f" stroke="none" transform="matrix(1 0 0 1 863 1755 )" />
  </g>
</svg>