<?xml version="1.0" encoding="utf-8"?>
<svg version="1.1" xmlns:xlink="http://www.w3.org/1999/xlink" width="9px" height="8px" xmlns="http://www.w3.org/2000/svg">
  <g transform="matrix(1 0 0 1 -175 -418 )">
    <path d="M 9 1.77391304347826  C 9 1.91046698872786  8.96464019851117 2.02769726247987  8.8939205955335 2.1256038647343  L 4.75124069478908 7.85314009661836  C 4.68052109181142 7.95104669887279  4.59677419354839 8  4.5 8  C 4.40322580645161 8  4.31947890818859 7.95104669887279  4.24875930521092 7.85314009661836  L 0.106079404466501 2.1256038647343  C 0.0353598014888338 2.02769726247987  0 1.91046698872786  0 1.77391304347826  C 0 1.63735909822866  0.0353598014888338 1.52012882447665  0.106079404466501 1.42222222222222  L 1.03287841191067 0.146859903381642  C 1.10359801488834 0.0489533011272139  1.18734491315136 0  1.28411910669975 0  C 1.38089330024814 0  1.46464019851117 0.0489533011272139  1.53535980148883 0.146859903381642  L 4.5 4.2512077294686  L 7.46464019851117 0.146859903381642  C 7.53535980148884 0.0489533011272139  7.61910669975186 0  7.71588089330025 0  C 7.81265508684864 0  7.89640198511166 0.0489533011272139  7.96712158808933 0.146859903381642  L 8.8939205955335 1.42222222222222  C 8.96464019851117 1.52012882447665  9 1.63735909822866  9 1.77391304347826  Z " fill-rule="nonzero" fill="#606c7d" stroke="none" transform="matrix(1 0 0 1 175 418 )" />
  </g>
</svg>