<?xml version="1.0" encoding="utf-8"?>
<svg version="1.1" xmlns:xlink="http://www.w3.org/1999/xlink" width="12px" height="17px" xmlns="http://www.w3.org/2000/svg">
  <g transform="matrix(1 0 0 1 -982 -1047 )">
    <path d="M 11.7613636363636 6.51988636363636  C 11.9204545454545 6.74526515151515  12 7.01893939393939  12 7.34090909090909  L 12 9.65909090909091  C 12 9.98106060606061  11.9204545454545 10.2547348484848  11.7613636363636 10.4801136363636  C 11.6022727272727 10.7054924242424  11.4090909090909 10.8181818181818  11.1818181818182 10.8181818181818  L 7.63636363636364 10.8181818181818  L 7.63636363636364 15.8409090909091  C 7.63636363636364 16.1628787878788  7.55681818181818 16.436553030303  7.39772727272727 16.6619318181818  C 7.23863636363637 16.8873106060606  7.04545454545455 17  6.81818181818182 17  L 5.18181818181818 17  C 4.95454545454546 17  4.76136363636364 16.8873106060606  4.60227272727273 16.6619318181818  C 4.44318181818182 16.436553030303  4.36363636363636 16.1628787878788  4.36363636363636 15.8409090909091  L 4.36363636363636 10.8181818181818  L 0.818181818181818 10.8181818181818  C 0.590909090909091 10.8181818181818  0.397727272727273 10.7054924242424  0.238636363636364 10.4801136363636  C 0.0795454545454545 10.2547348484848  0 9.98106060606061  0 9.65909090909091  L 0 7.34090909090909  C 0 7.01893939393939  0.0795454545454545 6.74526515151515  0.238636363636364 6.51988636363636  C 0.397727272727273 6.29450757575758  0.590909090909091 6.18181818181818  0.818181818181818 6.18181818181818  L 4.36363636363636 6.18181818181818  L 4.36363636363636 1.15909090909091  C 4.36363636363636 0.837121212121211  4.44318181818182 0.563446969696969  4.60227272727273 0.338068181818182  C 4.76136363636364 0.112689393939393  4.95454545454546 0  5.18181818181818 0  L 6.81818181818182 0  C 7.04545454545455 0  7.23863636363637 0.112689393939393  7.39772727272727 0.338068181818182  C 7.55681818181818 0.563446969696969  7.63636363636364 0.837121212121211  7.63636363636364 1.15909090909091  L 7.63636363636364 6.18181818181818  L 11.1818181818182 6.18181818181818  C 11.4090909090909 6.18181818181818  11.6022727272727 6.29450757575758  11.7613636363636 6.51988636363636  Z " fill-rule="nonzero" fill="#ffffff" stroke="none" transform="matrix(1 0 0 1 982 1047 )" />
  </g>
</svg>