<?xml version="1.0" encoding="utf-8"?>
<svg version="1.1" xmlns:xlink="http://www.w3.org/1999/xlink" width="27px" height="23px" xmlns="http://www.w3.org/2000/svg">
  <g transform="matrix(1 0 0 1 -664 -843 )">
    <path d="M 677.5 844  C 684.5 844  690 848.62  690 854.5  C 690 860.38  684.5 865  677.5 865  C 670.5 865  665 860.38  665 854.5  C 665 848.62  670.5 844  677.5 844  Z " fill-rule="nonzero" fill="#ff6699" stroke="none" />
    <path d="M 677.5 844  C 684.5 844  690 848.62  690 854.5  C 690 860.38  684.5 865  677.5 865  C 670.5 865  665 860.38  665 854.5  C 665 848.62  670.5 844  677.5 844  Z " stroke-width="2" stroke="#ff9933" fill="none" />
  </g>
</svg>