<?xml version="1.0" encoding="utf-8"?>
<svg version="1.1" xmlns:xlink="http://www.w3.org/1999/xlink" width="12px" height="14px" xmlns="http://www.w3.org/2000/svg">
  <g transform="matrix(1 0 0 1 -1146 -690 )">
    <path d="M 11.7938144329897 6.67735470941884  C 11.9312714776632 6.77087508350033  12 6.87842351369405  12 7  C 12 7.12157648630594  11.9312714776632 7.22912491649967  11.7938144329897 7.32264529058116  L 2.18556701030928 13.8597194388778  C 2.04810996563574 13.9532398129593  1.89003436426117 14  1.71134020618557 14  C 1.53264604810997 14  1.3745704467354 13.9532398129593  1.23711340206186 13.8597194388778  L 0.206185567010309 13.1583166332665  C 0.0687285223367698 13.064796259185  0 12.9572478289913  0 12.8356713426854  C 0 12.7140948563794  0.0687285223367698 12.6065464261857  0.206185567010309 12.5130260521042  L 8.30927835051546 7  L 0.206185567010309 1.48697394789579  C 0.0687285223367698 1.39345357381429  0 1.28590514362057  0 1.16432865731463  C 0 1.04275217100868  0.0687285223367698 0.935203740814962  0.206185567010309 0.841683366733466  L 1.23711340206186 0.140280561122245  C 1.3745704467354 0.0467601870407477  1.53264604810997 0  1.71134020618557 0  C 1.89003436426117 0  2.04810996563574 0.0467601870407477  2.18556701030928 0.140280561122245  L 11.7938144329897 6.67735470941884  Z " fill-rule="nonzero" fill="#aaaaaa" stroke="none" transform="matrix(1 0 0 1 1146 690 )" />
  </g>
</svg>