<?xml version="1.0" encoding="utf-8"?>
<svg version="1.1" xmlns:xlink="http://www.w3.org/1999/xlink" width="17px" height="9px" xmlns="http://www.w3.org/2000/svg">
  <g transform="matrix(1 0 0 1 -1581 -797 )">
    <path d="M 17 7.00434782608696  C 17 6.85072463768116  16.9332092638544 6.71884057971015  16.7996277915633 6.60869565217391  L 8.97456575682382 0.165217391304348  C 8.84098428453267 0.0550724637681156  8.68279569892473 0  8.5 0  C 8.31720430107527 0  8.15901571546733 0.0550724637681156  8.02543424317618 0.165217391304348  L 0.200372208436725 6.60869565217391  C 0.066790736145575 6.71884057971015  0 6.85072463768116  0 7.00434782608696  C 0 7.15797101449275  0.066790736145575 7.28985507246377  0.200372208436725 7.4  L 1.95099255583127 8.83478260869565  C 2.08457402812242 8.94492753623188  2.24276261373036 9  2.42555831265509 9  C 2.60835401157982 9  2.76654259718776 8.94492753623188  2.90012406947891 8.83478260869565  L 8.5 4.21739130434783  L 14.0998759305211 8.83478260869565  C 14.2334574028122 8.94492753623188  14.3916459884202 9  14.5744416873449 9  C 14.7572373862696 9  14.9154259718776 8.94492753623188  15.0490074441687 8.83478260869565  L 16.7996277915633 7.4  C 16.9332092638544 7.28985507246377  17 7.15797101449275  17 7.00434782608696  Z " fill-rule="nonzero" fill="#7f7f7f" stroke="none" transform="matrix(1 0 0 1 1581 797 )" />
  </g>
</svg>