<?xml version="1.0" encoding="utf-8"?>
<svg version="1.1" xmlns:xlink="http://www.w3.org/1999/xlink" width="159px" height="219px" xmlns="http://www.w3.org/2000/svg">
  <defs>
    <mask fill="white" id="clip147">
      <path d="M 4.95853971748193 39  C -2.24517441074568 39  0.73913043478251 92.4406110223708  0.73913043478251 107.628441642719  L 0.73913043478251 191.5  C 0.73913043478251 206.687830620346  6.57889456742464 219  13.7826086956522 219  L 144.217391304348 219  C 151.421105432575 219  157.260869565217 206.687830620346  157 191.5  L 157 107.628441642719  C 157.260869565217 100.077032220226  159.861041955248 94.7835826000749  157 89.5902089370184  L 157 39  L 75.0000000000002 39  L 82.3874107722268 0.421251949213683  L 9.66666666666674 39  L 4.95853971748193 39  Z " fill-rule="evenodd" />
    </mask>
  </defs>
  <g transform="matrix(1 0 0 1 -1401 -1231 )">
    <path d="M 4.95853971748193 39  C -2.24517441074568 39  0.73913043478251 92.4406110223708  0.73913043478251 107.628441642719  L 0.73913043478251 191.5  C 0.73913043478251 206.687830620346  6.57889456742464 219  13.7826086956522 219  L 144.217391304348 219  C 151.421105432575 219  157.260869565217 206.687830620346  157 191.5  L 157 107.628441642719  C 157.260869565217 100.077032220226  159.861041955248 94.7835826000749  157 89.5902089370184  L 157 39  L 75.0000000000002 39  L 82.3874107722268 0.421251949213683  L 9.66666666666674 39  L 4.95853971748193 39  Z " fill-rule="nonzero" fill="#f2f2f2" stroke="none" transform="matrix(1 0 0 1 1401 1231 )" />
    <path d="M 4.95853971748193 39  C -2.24517441074568 39  0.73913043478251 92.4406110223708  0.73913043478251 107.628441642719  L 0.73913043478251 191.5  C 0.73913043478251 206.687830620346  6.57889456742464 219  13.7826086956522 219  L 144.217391304348 219  C 151.421105432575 219  157.260869565217 206.687830620346  157 191.5  L 157 107.628441642719  C 157.260869565217 100.077032220226  159.861041955248 94.7835826000749  157 89.5902089370184  L 157 39  L 75.0000000000002 39  L 82.3874107722268 0.421251949213683  L 9.66666666666674 39  L 4.95853971748193 39  Z " stroke-width="2" stroke="#7f7f7f" fill="none" transform="matrix(1 0 0 1 1401 1231 )" mask="url(#clip147)" />
  </g>
</svg>