<?xml version="1.0" encoding="utf-8"?>
<svg version="1.1" xmlns:xlink="http://www.w3.org/1999/xlink" width="12px" height="13px" xmlns="http://www.w3.org/2000/svg">
  <g transform="matrix(1 0 0 1 -1074 -738 )">
    <path d="M 11.73046875 7.66373697916667  C 11.7799479166667 7.71733940972222  11.8046875 7.78081597222222  11.8046875 7.85416666666667  C 11.8046875 7.88237847222222  11.8020833333333 7.90212673611111  11.796875 7.91341145833333  C 11.4635416666667 9.42556423611111  10.765625 10.6513671875  9.703125 11.5908203125  C 8.640625 12.5302734375  7.39583333333333 13  5.96875 13  C 5.20833333333333 13  4.47265625 12.8448350694444  3.76171875 12.5345052083333  C 3.05078125 12.2241753472222  2.41666666666667 11.78125  1.859375 11.2057291666667  L 0.8515625 12.2975260416667  C 0.752604166666667 12.4047309027778  0.635416666666667 12.4583333333333  0.5 12.4583333333333  C 0.364583333333333 12.4583333333333  0.247395833333333 12.4047309027778  0.1484375 12.2975260416667  C 0.0494791666666667 12.1903211805556  0 12.0633680555556  0 11.9166666666667  L 0 8.125  C 0 7.97829861111111  0.0494791666666667 7.85134548611111  0.1484375 7.744140625  C 0.247395833333333 7.63693576388889  0.364583333333333 7.58333333333333  0.5 7.58333333333333  L 4 7.58333333333333  C 4.13541666666667 7.58333333333333  4.25260416666667 7.63693576388889  4.3515625 7.744140625  C 4.45052083333333 7.85134548611111  4.5 7.97829861111111  4.5 8.125  C 4.5 8.27170138888889  4.45052083333333 8.39865451388889  4.3515625 8.505859375  L 3.28125 9.66536458333333  C 3.65104166666667 10.0377604166667  4.0703125 10.3255208333333  4.5390625 10.5286458333333  C 5.0078125 10.7317708333333  5.49479166666667 10.8333333333333  6 10.8333333333333  C 6.69791666666667 10.8333333333333  7.34895833333333 10.6499565972222  7.953125 10.283203125  C 8.55729166666667 9.91644965277778  9.04166666666667 9.41145833333333  9.40625 8.76822916666667  C 9.46354166666667 8.67230902777778  9.6015625 8.34223090277778  9.8203125 7.77799479166667  C 9.86197916666667 7.64822048611111  9.94010416666667 7.58333333333333  10.0546875 7.58333333333333  L 11.5546875 7.58333333333333  C 11.6223958333333 7.58333333333333  11.6809895833333 7.61013454861111  11.73046875 7.66373697916667  Z M 11.8515625 0.702473958333334  C 11.9505208333333 0.809678819444444  12 0.936631944444444  12 1.08333333333333  L 12 4.875  C 12 5.02170138888889  11.9505208333333 5.14865451388889  11.8515625 5.255859375  C 11.7526041666667 5.36306423611111  11.6354166666667 5.41666666666667  11.5 5.41666666666667  L 8 5.41666666666667  C 7.86458333333333 5.41666666666667  7.74739583333333 5.36306423611111  7.6484375 5.255859375  C 7.54947916666667 5.14865451388889  7.5 5.02170138888889  7.5 4.875  C 7.5 4.72829861111111  7.54947916666667 4.60134548611111  7.6484375 4.494140625  L 8.7265625 3.326171875  C 7.95572916666667 2.55316840277778  7.046875 2.16666666666667  6 2.16666666666667  C 5.30208333333333 2.16666666666667  4.65104166666667 2.35004340277778  4.046875 2.716796875  C 3.44270833333333 3.08355034722222  2.95833333333333 3.58854166666667  2.59375 4.23177083333333  C 2.53645833333333 4.32769097222222  2.3984375 4.65776909722222  2.1796875 5.22200520833333  C 2.13802083333333 5.35177951388889  2.05989583333333 5.41666666666667  1.9453125 5.41666666666667  L 0.390625 5.41666666666667  C 0.322916666666667 5.41666666666667  0.264322916666667 5.38986545138889  0.21484375 5.33626302083333  C 0.165364583333333 5.28266059027778  0.140625 5.21918402777778  0.140625 5.14583333333333  L 0.140625 5.08658854166667  C 0.479166666666667 3.57443576388889  1.18229166666667 2.3486328125  2.25 1.4091796875  C 3.31770833333333 0.4697265625  4.56770833333333 0  6 0  C 6.76041666666667 0  7.5 0.156575520833334  8.21875 0.4697265625  C 8.9375 0.782877604166666  9.57552083333333 1.22439236111111  10.1328125 1.79427083333333  L 11.1484375 0.702473958333334  C 11.2473958333333 0.595269097222221  11.3645833333333 0.541666666666666  11.5 0.541666666666666  C 11.6354166666667 0.541666666666666  11.7526041666667 0.595269097222221  11.8515625 0.702473958333334  Z " fill-rule="nonzero" fill="#ffffff" stroke="none" fill-opacity="0.776470588235294" transform="matrix(1 0 0 1 1074 738 )" />
  </g>
</svg>