<?xml version="1.0" encoding="utf-8"?>
<svg version="1.1" xmlns:xlink="http://www.w3.org/1999/xlink" width="13px" height="16px" xmlns="http://www.w3.org/2000/svg">
  <g transform="matrix(1 0 0 1 -914 -736 )">
    <path d="M 9.78385416666667 0.607142857142858  L 12.4244791666667 3.39285714285714  C 12.5824652777778 3.55952380952381  12.7178819444444 3.78571428571429  12.8307291666667 4.07142857142857  C 12.9435763888889 4.35714285714286  13 4.61904761904762  13 4.85714285714286  L 13 15.1428571428571  C 13 15.3809523809524  12.9210069444444 15.5833333333333  12.7630208333333 15.75  C 12.6050347222222 15.9166666666667  12.4131944444444 16  12.1875 16  L 0.8125 16  C 0.586805555555556 16  0.394965277777778 15.9166666666667  0.236979166666667 15.75  C 0.0789930555555556 15.5833333333333  0 15.3809523809524  0 15.1428571428571  L 0 0.857142857142858  C 0 0.619047619047619  0.0789930555555556 0.416666666666666  0.236979166666667 0.25  C 0.394965277777778 0.0833333333333339  0.586805555555556 0  0.8125 0  L 8.39583333333333 0  C 8.62152777777778 0  8.86979166666667 0.0595238095238102  9.140625 0.178571428571429  C 9.41145833333333 0.297619047619047  9.62586805555556 0.44047619047619  9.78385416666667 0.607142857142858  Z M 9.013671875 1.41071428571429  C 8.94596354166667 1.33928571428571  8.83029513888889 1.27380952380952  8.66666666666667 1.21428571428571  L 8.66666666666667 4.57142857142857  L 11.8489583333333 4.57142857142857  C 11.7925347222222 4.39880952380952  11.73046875 4.27678571428571  11.6627604166667 4.20535714285714  L 9.013671875 1.41071428571429  Z M 1 14.8571428571429  L 11.9166666666667 14.8571428571429  L 11.9166666666667 5.71428571428571  L 8.39583333333333 5.71428571428571  C 8.17013888888889 5.71428571428571  7.97829861111111 5.63095238095238  7.8203125 5.46428571428571  C 7.66232638888889 5.29761904761905  7.58333333333333 5.09523809523809  7.58333333333333 4.85714285714286  L 7.58333333333333 1.14285714285714  L 1 1.14285714285714  L 1 14.8571428571429  Z " fill-rule="nonzero" fill="#ffffff" stroke="none" fill-opacity="0.815686274509804" transform="matrix(1 0 0 1 914 736 )" />
  </g>
</svg>