<?xml version="1.0" encoding="utf-8"?>
<svg version="1.1" xmlns:xlink="http://www.w3.org/1999/xlink" width="19px" height="10px" xmlns="http://www.w3.org/2000/svg">
  <g transform="matrix(1 0 0 1 -1097 -803 )">
    <path d="M 18.809619238477 8.1786941580756  C 18.936539746159 8.29324169530355  19 8.42497136311569  19 8.57388316151203  C 19 8.72279495990836  18.936539746159 8.8545246277205  18.809619238477 8.96907216494845  L 17.8577154308617 9.82817869415807  C 17.7307949231797 9.94272623138602  17.5848363393454 10  17.4198396793587 10  C 17.2548430193721 10  17.1088844355377 9.94272623138602  16.9819639278557 9.82817869415807  L 9.5 3.07560137457045  L 2.01803607214429 9.82817869415807  C 1.89111556446226 9.94272623138602  1.74515698062792 10  1.58016032064128 10  C 1.41516366065464 10  1.26920507682031 9.94272623138602  1.14228456913828 9.82817869415807  L 0.190380761523046 8.96907216494845  C 0.0634602538410155 8.8545246277205  0 8.72279495990836  0 8.57388316151203  C 0 8.42497136311569  0.0634602538410155 8.29324169530355  0.190380761523046 8.1786941580756  L 9.06212424849699 0.171821305841925  C 9.18904475617903 0.0572737686139735  9.33500334001336 0  9.5 0  C 9.66499665998664 0  9.81095524382098 0.0572737686139735  9.93787575150301 0.171821305841925  L 18.809619238477 8.1786941580756  Z " fill-rule="nonzero" fill="#aaaaaa" stroke="none" transform="matrix(1 0 0 1 1097 803 )" />
  </g>
</svg>