<?xml version="1.0" encoding="utf-8"?>
<svg version="1.1" xmlns:xlink="http://www.w3.org/1999/xlink" width="23px" height="23px" xmlns="http://www.w3.org/2000/svg">
  <defs>
    <mask fill="white" id="clip688">
      <path d="M 0 11.5  C 0 8.27999999999997  1.26499999999999 5.40499999999997  3.33499999999998 3.33500000000004  C 5.40499999999997 1.26499999999999  8.27999999999997 0  11.5 0  C 17.9400000000001 0  23 5.05999999999995  23 11.5  C 23 17.9400000000001  17.9400000000001 23  11.5 23  C 5.05999999999995 23  0 17.9400000000001  0 11.5  Z " fill-rule="evenodd" />
    </mask>
  </defs>
  <g transform="matrix(1 0 0 1 -508 -1029 )">
    <path d="M 0 11.5  C 0 8.27999999999997  1.26499999999999 5.40499999999997  3.33499999999998 3.33500000000004  C 5.40499999999997 1.26499999999999  8.27999999999997 0  11.5 0  C 17.9400000000001 0  23 5.05999999999995  23 11.5  C 23 17.9400000000001  17.9400000000001 23  11.5 23  C 5.05999999999995 23  0 17.9400000000001  0 11.5  Z " fill-rule="nonzero" fill="#ff6699" stroke="none" transform="matrix(1 0 0 1 508 1029 )" />
    <path d="M 0 11.5  C 0 8.27999999999997  1.26499999999999 5.40499999999997  3.33499999999998 3.33500000000004  C 5.40499999999997 1.26499999999999  8.27999999999997 0  11.5 0  C 17.9400000000001 0  23 5.05999999999995  23 11.5  C 23 17.9400000000001  17.9400000000001 23  11.5 23  C 5.05999999999995 23  0 17.9400000000001  0 11.5  Z " stroke-width="4" stroke="#ff9933" fill="none" transform="matrix(1 0 0 1 508 1029 )" mask="url(#clip688)" />
  </g>
</svg>