<?xml version="1.0" encoding="utf-8"?>
<svg version="1.1" xmlns:xlink="http://www.w3.org/1999/xlink" width="21px" height="10px" xmlns="http://www.w3.org/2000/svg">
  <g transform="matrix(1 0 0 1 -362 -543 )">
    <path d="M 20.7895791583166 1.03092783505155  C 20.9298597194389 1.14547537227949  21 1.27720504009164  21 1.42611683848797  C 21 1.57502863688431  20.9298597194389 1.70675830469645  20.7895791583166 1.8213058419244  L 10.9839679358717 9.82817869415807  C 10.8436873747495 9.94272623138602  10.6823647294589 10  10.5 10  C 10.3176352705411 10  10.1563126252505 9.94272623138602  10.0160320641283 9.82817869415807  L 0.210420841683367 1.8213058419244  C 0.0701402805611225 1.70675830469645  0 1.57502863688431  0 1.42611683848797  C 0 1.27720504009164  0.0701402805611225 1.14547537227949  0.210420841683367 1.03092783505155  L 1.2625250501002 0.171821305841925  C 1.40280561122245 0.0572737686139735  1.56412825651303 0  1.74649298597194 0  C 1.92885771543086 0  2.09018036072144 0.0572737686139735  2.23046092184369 0.171821305841925  L 10.5 6.92439862542955  L 18.7695390781563 0.171821305841925  C 18.9098196392786 0.0572737686139735  19.0711422845691 0  19.2535070140281 0  C 19.435871743487 0  19.5971943887776 0.0572737686139735  19.7374749498998 0.171821305841925  L 20.7895791583166 1.03092783505155  Z " fill-rule="nonzero" fill="#d7d7d7" stroke="none" transform="matrix(1 0 0 1 362 543 )" />
  </g>
</svg>