<?xml version="1.0" encoding="utf-8"?>
<svg version="1.1" xmlns:xlink="http://www.w3.org/1999/xlink" width="21px" height="14px" xmlns="http://www.w3.org/2000/svg">
  <g transform="matrix(1 0 0 1 -235 -541 )">
    <path d="M 16.45 11  L 4.55 11  C 4.06875 11.2  3.65677083333333 11.0286458333333  3.3140625 10.6859375  C 2.97135416666667 10.3432291666667  2.8 9.93125  2.8 9.45  L 2.8 1.75  C 2.8 1.26875  2.97135416666667 0.856770833333333  3.3140625 0.5140625  C 3.65677083333333 0.171354166666665  4.06875 0  4.55 0  L 16.45 0  C 16.93125 0  17.3432291666667 0.171354166666665  17.6859375 0.5140625  C 18.0286458333333 0.856770833333333  18.2 1.26875  18.2 1.75  L 18.2 9.45  C 18.2 9.93125  18.0286458333333 10.3432291666667  17.6859375 10.6859375  C 17.3432291666667 11.0286458333333  16.93125 11.2  16.45 11  Z M 4.30390625 1.50390625  C 4.23463541666667 1.57317708333333  4.2 1.65520833333333  4.2 1.75  L 4.2 9.45  C 4.2 9.54479166666667  4.23463541666667 9.62682291666667  4.30390625 9.69609375  C 4.37317708333333 9.76536458333334  4.45520833333333 9.8  4.55 9.8  L 16.45 9.8  C 16.5447916666667 9.8  16.6268229166667 9.76536458333334  16.69609375 9.69609375  C 16.7653645833333 9.62682291666667  16.8 9.54479166666667  16.8 9.45  L 16.8 1.75  C 16.8 1.65520833333333  16.7653645833333 1.57317708333333  16.69609375 1.50390625  C 16.6268229166667 1.43463541666666  16.5447916666667 1.4  16.45 1.4  L 4.55 1.4  C 4.45520833333333 1.4  4.37317708333333 1.43463541666666  4.30390625 1.50390625  Z M 1.75 12  L 19.25 12  L 21 11.9  L 21 12.95  C 21 13.2416666666667  20.8286458333333 13.4895833333333  20.4859375 13.69375  C 20.1432291666667 13.8979166666667  19.73125 14  19.25 14  L 1.75 14  C 1.26875 14  0.856770833333333 13.8979166666667  0.5140625 13.69375  C 0.171354166666667 13.4895833333333  0 13.2416666666667  0 12.95  L 0 11.9  L 1.75 12  Z M 9.625 12.95  L 11.375 12.95  C 11.4916666666667 12.95  11.55 12.8916666666667  11.55 12.775  C 11.55 12.6583333333333  11.4916666666667 12.6  11.375 12.6  L 9.625 12.6  C 9.50833333333333 12.6  9.45 12.6583333333333  9.45 12.775  C 9.45 12.8916666666667  9.50833333333333 12.95  9.625 12.95  Z " fill-rule="nonzero" fill="#d7d7d7" stroke="none" transform="matrix(1 0 0 1 235 541 )" />
  </g>
</svg>