<?xml version="1.0" encoding="utf-8"?>
<svg version="1.1" xmlns:xlink="http://www.w3.org/1999/xlink" width="12px" height="12px" xmlns="http://www.w3.org/2000/svg">
  <g transform="matrix(1 0 0 1 -271 -586 )">
    <path d="M 10.511760513186 0.119828815977175  C 11.0591589451176 -0.0627674750356659  11.4811119030649 -0.028530670470758  11.7776193870278 0.222539229671898  C 12.0285103349964 0.519258202567759  12.0627227369922 0.94151212553495  11.880256593015 1.48930099857347  C 11.6977904490378 2.03708987161198  11.3898788310763 2.52781740370899  10.9565217391304 2.96148359486448  L 9.57947255880257 4.339514978602  L 10.9479686386315 10.2967189728959  C 10.9764789736279 10.4051355206847  10.9422665716322 10.4992867332382  10.8453314326443 10.5791726105563  L 9.75053456878118 11.4008559201141  C 9.71062009978617 11.435092724679  9.65645046329294 11.4522111269615  9.5880256593015 11.4522111269615  C 9.56521739130435 11.4522111269615  9.54526015680684 11.4493580599144  9.52815395580898 11.4436519258203  C 9.44262295081967 11.4265335235378  9.38275124732716 11.3808844507846  9.34853884533143 11.3067047075606  L 6.96222380612972 6.9586305278174  L 4.74697077690663 9.17546362339515  L 5.20028510334996 10.8359486447932  C 5.2287954383464 10.9329529243937  5.20598717034925 11.0213980028531  5.13186029935852 11.1012838801712  L 4.31076265146115 11.922967189729  C 4.25944404846757 11.9743223965763  4.19387027797577 12  4.11404133998574 12  L 4.09693513898788 12  C 4.01140413399857 11.9885877318117  3.94297933000713 11.9514978601997  3.89166072701354 11.8887303851641  L 2.27512473271561 9.73181169757489  L 0.119743406985032 8.11412268188302  C 0.0570206699928724 8.07417974322397  0.0199572344975053 8.00855920114122  0.00855310049893086 7.91726105563481  C 0.00285103349964362 7.84308131241084  0.0285103349964362 7.77175463623395  0.0855310049893086 7.70328102710414  L 0.906628652886671 6.87303851640514  C 0.957947255880257 6.82168330955778  1.02352102637206 6.79600570613409  1.10334996436208 6.79600570613409  C 1.1375623663578 6.79600570613409  1.16037063435495 6.79885877318117  1.17177476835353 6.80456490727532  L 2.83107626514612 7.25820256776034  L 5.04632929436921 5.0413694721826  L 0.701354240912331 2.65335235378031  C 0.621525302922309 2.6077032810271  0.573057733428368 2.53922967189729  0.555951532430506 2.44793152639087  C 0.544547398431932 2.35663338088445  0.570206699928724 2.27960057061341  0.632929436920884 2.21683309557775  L 1.72772630078403 1.12125534950071  C 1.80755523877406 1.04707560627675  1.89308624376336 1.02425106990014  1.98431931575196 1.0527817403709  L 7.67213114754098 2.41369472182596  L 9.04062722736992 1.04422253922967  C 9.47398431931575 0.610556348074179  9.96436208125445 0.302425106990014  10.511760513186 0.119828815977175  Z " fill-rule="nonzero" fill="#aaaaaa" stroke="none" transform="matrix(1 0 0 1 271 586 )" />
  </g>
</svg>