<?xml version="1.0" encoding="utf-8"?>
<svg version="1.1" xmlns:xlink="http://www.w3.org/1999/xlink" width="11px" height="10px" xmlns="http://www.w3.org/2000/svg">
  <g transform="matrix(1 0 0 1 -272 -628 )">
    <path d="M 1.85874587458746 9.15511551155116  L 2.63564356435644 9.15511551155116  L 3.2963696369637 8.55445544554455  L 1.59009900990099 7.003300330033  L 0.929372937293729 7.6039603960396  L 0.929372937293729 8.31023102310231  L 1.85874587458746 8.31023102310231  L 1.85874587458746 9.15511551155116  Z M 6.38217821782178 3.14191419141914  C 6.41606160616062 3.11111111111111  6.43300330033003 3.07370737073707  6.43300330033003 3.02970297029703  C 6.43300330033003 2.93289328932893  6.37975797579758 2.88448844884488  6.27326732673267 2.88448844884488  C 6.22486248624863 2.88448844884488  6.18371837183718 2.8998899889989  6.14983498349835 2.93069306930693  L 2.21452145214521 6.50825082508251  C 2.18063806380638 6.53905390539054  2.16369636963696 6.57645764576458  2.16369636963696 6.62046204620462  C 2.16369636963696 6.71727172717272  2.21694169416942 6.76567656765677  2.32343234323432 6.76567656765677  C 2.37183718371837 6.76567656765677  2.41298129812981 6.75027502750275  2.44686468646865 6.71947194719472  L 6.38217821782178 3.14191419141914  Z M 0 7.25412541254125  L 6.04092409240924 1.76237623762376  L 9.06138613861386 4.50825082508251  L 3.02046204620462 10  L 0 10  L 0 7.25412541254125  Z M 10.7313531353135 1.7953795379538  C 10.9104510451045 1.96699669966997  11 2.16721672167217  11 2.3960396039604  C 11 2.62926292629263  10.9104510451045 2.82728272827283  10.7313531353135 2.99009900990099  L 9.52607260726073 4.08580858085809  L 6.50561056105611 1.33993399339934  L 7.71089108910891 0.25082508250825  C 7.88514851485149 0.0836083608360827  8.1029702970297 0  8.36435643564356 0  C 8.62090209020902 0  8.84114411441144 0.0836083608360827  9.02508250825083 0.25082508250825  L 10.7313531353135 1.7953795379538  Z " fill-rule="nonzero" fill="#aaaaaa" stroke="none" transform="matrix(1 0 0 1 272 628 )" />
  </g>
</svg>