<?xml version="1.0" encoding="utf-8"?>
<svg version="1.1" xmlns:xlink="http://www.w3.org/1999/xlink" width="10px" height="10px" xmlns="http://www.w3.org/2000/svg">
  <g transform="matrix(1 0 0 1 -273 -714 )">
    <path d="M 5.25111607142857 1.69481981981982  C 5.32180059523809 1.6234984984985  5.35714285714286 1.53903903903904  5.35714285714286 1.44144144144144  C 5.35714285714286 1.34384384384384  5.32180059523809 1.25938438438438  5.25111607142857 1.18806306306306  C 5.18043154761905 1.11674174174174  5.09672619047619 1.08108108108108  5 1.08108108108108  C 4.90327380952381 1.08108108108108  4.81956845238095 1.11674174174174  4.74888392857143 1.18806306306306  C 4.67819940476191 1.25938438438438  4.64285714285714 1.34384384384384  4.64285714285714 1.44144144144144  C 4.64285714285714 1.53903903903904  4.67819940476191 1.6234984984985  4.74888392857143 1.69481981981982  C 4.81956845238095 1.76614114114114  4.90327380952381 1.8018018018018  5 1.8018018018018  C 5.09672619047619 1.8018018018018  5.18043154761905 1.76614114114114  5.25111607142857 1.69481981981982  Z M 9.94977678571429 6.53716216216216  C 9.98325892857143 6.57094594594595  10 6.61411411411411  10 6.66666666666667  L 10 8.64864864864865  C 10 8.73123123123123  9.96279761904762 8.78753753753754  9.88839285714286 8.81756756756757  C 9.85863095238095 8.82507507507508  9.83630952380953 8.82882882882883  9.82142857142857 8.82882882882883  C 9.77678571428571 8.82882882882883  9.73400297619048 8.81193693693694  9.69308035714286 8.77815315315315  L 9.17410714285714 8.2545045045045  C 8.73139880952381 8.79129129129129  8.13895089285714 9.2164039039039  7.39676339285714 9.52984234234234  C 6.65457589285714 9.84328078078078  5.85565476190476 10  5 10  C 4.14434523809524 10  3.34542410714286 9.84328078078078  2.60323660714286 9.52984234234234  C 1.86104910714286 9.2164039039039  1.26860119047619 8.79129129129129  0.825892857142857 8.2545045045045  L 0.306919642857143 8.77815315315315  C 0.2734375 8.81193693693694  0.230654761904762 8.82882882882883  0.178571428571429 8.82882882882883  C 0.163690476190476 8.82882882882883  0.141369047619048 8.82507507507508  0.111607142857143 8.81756756756757  C 0.037202380952381 8.78753753753754  0 8.73123123123123  0 8.64864864864865  L 0 6.66666666666667  C 0 6.61411411411411  0.0167410714285714 6.57094594594595  0.0502232142857143 6.53716216216216  C 0.0837053571428572 6.50337837837838  0.126488095238095 6.48648648648649  0.178571428571429 6.48648648648649  L 2.14285714285714 6.48648648648649  C 2.22470238095238 6.48648648648649  2.28050595238095 6.52402402402402  2.31026785714286 6.5990990990991  C 2.34002976190476 6.67042042042042  2.32700892857143 6.73611111111111  2.27120535714286 6.79617117117117  L 1.71316964285714 7.35923423423423  C 1.9624255952381 7.70082582582583  2.31491815476191 7.98892642642643  2.77064732142857 8.22353603603604  C 3.22637648809524 8.45814564564565  3.73139880952381 8.61298798798799  4.28571428571429 8.68806306306306  L 4.28571428571429 5.04504504504505  L 3.21428571428571 5.04504504504505  C 3.11755952380952 5.04504504504505  3.03385416666667 5.00938438438438  2.96316964285714 4.93806306306306  C 2.89248511904762 4.86674174174174  2.85714285714286 4.78228228228228  2.85714285714286 4.68468468468468  L 2.85714285714286 3.96396396396396  C 2.85714285714286 3.86636636636637  2.89248511904762 3.78190690690691  2.96316964285714 3.71058558558559  C 3.03385416666667 3.63926426426426  3.11755952380952 3.6036036036036  3.21428571428571 3.6036036036036  L 4.28571428571429 3.6036036036036  L 4.28571428571429 2.68581081081081  C 4.06994047619048 2.55818318318318  3.89694940476191 2.38457207207207  3.76674107142857 2.16497747747748  C 3.63653273809524 1.94538288288288  3.57142857142857 1.7042042042042  3.57142857142857 1.44144144144144  C 3.57142857142857 1.04354354354354  3.7109375 0.703828828828829  3.98995535714286 0.422297297297297  C 4.26897321428571 0.140765765765766  4.60565476190476 0  5 0  C 5.39434523809524 0  5.73102678571429 0.140765765765766  6.01004464285714 0.422297297297297  C 6.2890625 0.703828828828829  6.42857142857143 1.04354354354354  6.42857142857143 1.44144144144144  C 6.42857142857143 1.7042042042042  6.36346726190476 1.94538288288288  6.23325892857143 2.16497747747748  C 6.10305059523809 2.38457207207207  5.93005952380952 2.55818318318318  5.71428571428571 2.68581081081081  L 5.71428571428571 3.6036036036036  L 6.78571428571429 3.6036036036036  C 6.88244047619048 3.6036036036036  6.96614583333333 3.63926426426426  7.03683035714286 3.71058558558559  C 7.10751488095238 3.78190690690691  7.14285714285714 3.86636636636637  7.14285714285714 3.96396396396396  L 7.14285714285714 4.68468468468468  C 7.14285714285714 4.78228228228228  7.10751488095238 4.86674174174174  7.03683035714286 4.93806306306306  C 6.96614583333333 5.00938438438438  6.88244047619048 5.04504504504505  6.78571428571429 5.04504504504505  L 5.71428571428571 5.04504504504505  L 5.71428571428571 8.68806306306306  C 6.26860119047619 8.61298798798799  6.77362351190476 8.45814564564565  7.22935267857143 8.22353603603604  C 7.68508184523809 7.98892642642643  8.03757440476191 7.70082582582583  8.28683035714286 7.35923423423423  L 7.72879464285714 6.79617117117117  C 7.67299107142857 6.73611111111111  7.65997023809524 6.67042042042042  7.68973214285714 6.5990990990991  C 7.71949404761905 6.52402402402402  7.77529761904762 6.48648648648649  7.85714285714286 6.48648648648649  L 9.82142857142857 6.48648648648649  C 9.87351190476191 6.48648648648649  9.91629464285714 6.50337837837838  9.94977678571429 6.53716216216216  Z " fill-rule="nonzero" fill="#aaaaaa" stroke="none" transform="matrix(1 0 0 1 273 714 )" />
  </g>
</svg>