<?xml version="1.0" encoding="utf-8"?>
<svg version="1.1" xmlns:xlink="http://www.w3.org/1999/xlink" width="23px" height="23px" xmlns="http://www.w3.org/2000/svg">
  <defs>
    <mask fill="white" id="clip200">
      <path d="M 0 11.5  C 0 5.05999999999995  5.06 0  11.5 0  C 17.94 0  23 5.05999999999995  23 11.5  C 23 13.3482875907948  22.5832094365445 15.08290502792  21.8366242245285 16.6168563964804  C 19.9818779179384 20.4276613649364  16.0917124092052 23  11.5 23  C 5.06 23  0 17.9400000000001  0 11.5  Z " fill-rule="evenodd" />
    </mask>
  </defs>
  <g transform="matrix(1 0 0 1 -455 -753 )">
    <path d="M 0 11.5  C 0 5.05999999999995  5.06 0  11.5 0  C 17.94 0  23 5.05999999999995  23 11.5  C 23 13.3482875907948  22.5832094365445 15.08290502792  21.8366242245285 16.6168563964804  C 19.9818779179384 20.4276613649364  16.0917124092052 23  11.5 23  C 5.06 23  0 17.9400000000001  0 11.5  Z " fill-rule="nonzero" fill="#ff6699" stroke="none" transform="matrix(1 0 0 1 455 753 )" />
    <path d="M 0 11.5  C 0 5.05999999999995  5.06 0  11.5 0  C 17.94 0  23 5.05999999999995  23 11.5  C 23 13.3482875907948  22.5832094365445 15.08290502792  21.8366242245285 16.6168563964804  C 19.9818779179384 20.4276613649364  16.0917124092052 23  11.5 23  C 5.06 23  0 17.9400000000001  0 11.5  Z " stroke-width="4" stroke="#ff9933" fill="none" transform="matrix(1 0 0 1 455 753 )" mask="url(#clip200)" />
  </g>
</svg>