<?xml version="1.0" encoding="utf-8"?>
<svg version="1.1" xmlns:xlink="http://www.w3.org/1999/xlink" width="15px" height="14px" xmlns="http://www.w3.org/2000/svg">
  <g transform="matrix(1 0 0 1 -865 -371 )">
    <path d="M 9.267578125 8.64973958333333  C 9.755859375 8.19401041666667  10 7.64409722222222  10 7  C 10 6.35590277777778  9.755859375 5.80598958333333  9.267578125 5.35026041666667  C 8.779296875 4.89453125  8.19010416666667 4.66666666666667  7.5 4.66666666666667  C 6.80989583333333 4.66666666666667  6.220703125 4.89453125  5.732421875 5.35026041666667  C 5.244140625 5.80598958333333  5 6.35590277777778  5 7  C 5 7.64409722222222  5.244140625 8.19401041666667  5.732421875 8.64973958333333  C 6.220703125 9.10546875  6.80989583333333 9.33333333333333  7.5 9.33333333333333  C 8.19010416666667 9.33333333333333  8.779296875 9.10546875  9.267578125 8.64973958333333  Z M 14.921875 5.79231770833333  C 14.9739583333333 5.85611979166667  15 5.92751736111111  15 6.00651041666667  L 15 8.02994791666667  C 15 8.10286458333333  14.9739583333333 8.17274305555556  14.921875 8.23958333333333  C 14.8697916666667 8.30642361111111  14.8046875 8.34592013888889  14.7265625 8.35807291666667  L 12.919921875 8.61328125  C 12.7962239583333 8.94140625  12.6692708333333 9.21788194444444  12.5390625 9.44270833333333  C 12.7669270833333 9.74652777777778  13.115234375 10.1657986111111  13.583984375 10.7005208333333  C 13.6490885416667 10.7734375  13.681640625 10.8493923611111  13.681640625 10.9283854166667  C 13.681640625 11.0073784722222  13.65234375 11.0772569444444  13.59375 11.1380208333333  C 13.41796875 11.3628472222222  13.095703125 11.6909722222222  12.626953125 12.1223958333333  C 12.158203125 12.5538194444444  11.8522135416667 12.76953125  11.708984375 12.76953125  C 11.630859375 12.76953125  11.5462239583333 12.7421875  11.455078125 12.6875  L 10.107421875 11.703125  C 9.82096354166667 11.8428819444444  9.52473958333333 11.9583333333333  9.21875 12.0494791666667  C 9.11458333333333 12.8758680555556  9.02018229166667 13.4409722222222  8.935546875 13.7447916666667  C 8.88997395833333 13.9149305555556  8.77278645833333 14  8.583984375 14  L 6.416015625 14  C 6.32486979166667 14  6.2451171875 13.9741753472222  6.1767578125 13.9225260416667  C 6.1083984375 13.8708767361111  6.07096354166667 13.8055555555556  6.064453125 13.7265625  L 5.791015625 12.0494791666667  C 5.47200520833333 11.9522569444444  5.17903645833333 11.83984375  4.912109375 11.7122395833333  L 3.53515625 12.6875  C 3.47005208333333 12.7421875  3.388671875 12.76953125  3.291015625 12.76953125  C 3.19986979166667 12.76953125  3.11848958333333 12.7361111111111  3.046875 12.6692708333333  C 2.2265625 11.9765625  1.689453125 11.4661458333333  1.435546875 11.1380208333333  C 1.38997395833333 11.0772569444444  1.3671875 11.0073784722222  1.3671875 10.9283854166667  C 1.3671875 10.85546875  1.39322916666667 10.7855902777778  1.4453125 10.71875  C 1.54296875 10.5911458333333  1.708984375 10.3891059027778  1.943359375 10.1126302083333  C 2.177734375 9.83615451388889  2.353515625 9.62196180555555  2.470703125 9.47005208333333  C 2.294921875 9.16623263888889  2.16145833333333 8.86545138888889  2.0703125 8.56770833333333  L 0.283203125 8.32161458333333  C 0.198567708333333 8.30946180555556  0.130208333333333 8.271484375  0.078125 8.20768229166667  C 0.0260416666666667 8.14388020833333  0 8.07248263888889  0 7.99348958333333  L 0 5.97005208333333  C 0 5.89713541666667  0.0260416666666667 5.82725694444444  0.078125 5.76041666666667  C 0.130208333333333 5.69357638888889  0.192057291666667 5.65407986111111  0.263671875 5.64192708333333  L 2.080078125 5.38671875  C 2.17122395833333 5.10720486111111  2.29817708333333 4.82769097222222  2.4609375 4.54817708333333  C 2.20052083333333 4.20182291666667  1.85221354166667 3.78255208333333  1.416015625 3.29036458333333  C 1.35091145833333 3.21744791666667  1.318359375 3.14453125  1.318359375 3.07161458333333  C 1.318359375 3.01085069444444  1.34765625 2.94097222222222  1.40625 2.86197916666667  C 1.57552083333333 2.64322916666667  1.89615885416667 2.31662326388889  2.3681640625 1.88216145833333  C 2.84016927083333 1.44769965277778  3.14778645833333 1.23046875  3.291015625 1.23046875  C 3.37565104166667 1.23046875  3.46028645833333 1.26085069444444  3.544921875 1.32161458333333  L 4.892578125 2.296875  C 5.17903645833333 2.15711805555555  5.47526041666667 2.04166666666667  5.78125 1.95052083333333  C 5.88541666666667 1.12413194444444  5.97981770833333 0.559027777777777  6.064453125 0.255208333333333  C 6.11002604166667 0.0850694444444438  6.22721354166667 0  6.416015625 0  L 8.583984375 0  C 8.67513020833333 0  8.7548828125 0.0258246527777766  8.8232421875 0.0774739583333328  C 8.8916015625 0.129123263888888  8.92903645833333 0.194444444444444  8.935546875 0.2734375  L 9.208984375 1.95052083333333  C 9.52799479166667 2.04774305555555  9.82096354166667 2.16015625  10.087890625 2.28776041666667  L 11.474609375 1.3125  C 11.533203125 1.2578125  11.611328125 1.23046875  11.708984375 1.23046875  C 11.7936197916667 1.23046875  11.875 1.26085069444444  11.953125 1.32161458333333  C 12.79296875 2.04470486111111  13.330078125 2.56119791666667  13.564453125 2.87109375  C 13.6100260416667 2.91970486111111  13.6328125 2.98654513888889  13.6328125 3.07161458333333  C 13.6328125 3.14453125  13.6067708333333 3.21440972222222  13.5546875 3.28125  C 13.45703125 3.40885416666667  13.291015625 3.61089409722222  13.056640625 3.88736979166667  C 12.822265625 4.16384548611111  12.646484375 4.37803819444444  12.529296875 4.52994791666667  C 12.6985677083333 4.83376736111111  12.83203125 5.13151041666667  12.9296875 5.42317708333333  L 14.716796875 5.67838541666667  C 14.8014322916667 5.69053819444444  14.8697916666667 5.728515625  14.921875 5.79231770833333  Z " fill-rule="nonzero" fill="#f2f2f2" stroke="none" transform="matrix(1 0 0 1 865 371 )" />
  </g>
</svg>