<?xml version="1.0" encoding="utf-8"?>
<svg version="1.1" xmlns:xlink="http://www.w3.org/1999/xlink" width="376px" height="37px" xmlns="http://www.w3.org/2000/svg">
  <defs>
    <mask fill="white" id="clip459">
      <path d="M 0 37  L 0 0  L 376 0  L 376 37  L 214.882352941176 37  L 100.058823529413 37  L 0 37  Z " fill-rule="evenodd" />
    </mask>
  </defs>
  <g transform="matrix(1 0 0 1 -231 -436 )">
    <path d="M 0 37  L 0 0  L 376 0  L 376 37  L 214.882352941176 37  L 100.058823529413 37  L 0 37  Z " fill-rule="nonzero" fill="#ffffff" stroke="none" transform="matrix(1 0 0 1 231 436 )" />
    <path d="M 0 37  L 0 0  L 376 0  L 376 37  L 214.882352941176 37  L 100.058823529413 37  L 0 37  Z " stroke-width="2" stroke="#cccccc" fill="none" transform="matrix(1 0 0 1 231 436 )" mask="url(#clip459)" />
  </g>
</svg>