<?xml version="1.0" encoding="utf-8"?>
<svg version="1.1" xmlns:xlink="http://www.w3.org/1999/xlink" width="23px" height="23px" xmlns="http://www.w3.org/2000/svg">
  <defs>
    <mask fill="white" id="clip460">
      <path d="M 0 11.5  C 0 9.42165207386165  0.527005669065204 7.48703296655924  1.45732404961632 5.81983563567212  C 3.40970413133908 2.32103035656206  7.13834792613835 0  11.5 0  C 17.94 0  23 5.06  23 11.5  C 23 17.94  17.94 23  11.5 23  C 5.06 23  0 17.94  0 11.5  Z " fill-rule="evenodd" />
    </mask>
  </defs>
  <g transform="matrix(1 0 0 1 -432 -1580 )">
    <path d="M 0 11.5  C 0 9.42165207386165  0.527005669065204 7.48703296655924  1.45732404961632 5.81983563567212  C 3.40970413133908 2.32103035656206  7.13834792613835 0  11.5 0  C 17.94 0  23 5.06  23 11.5  C 23 17.94  17.94 23  11.5 23  C 5.06 23  0 17.94  0 11.5  Z " fill-rule="nonzero" fill="#ff6699" stroke="none" transform="matrix(1 0 0 1 432 1580 )" />
    <path d="M 0 11.5  C 0 9.42165207386165  0.527005669065204 7.48703296655924  1.45732404961632 5.81983563567212  C 3.40970413133908 2.32103035656206  7.13834792613835 0  11.5 0  C 17.94 0  23 5.06  23 11.5  C 23 17.94  17.94 23  11.5 23  C 5.06 23  0 17.94  0 11.5  Z " stroke-width="4" stroke="#ff9933" fill="none" transform="matrix(1 0 0 1 432 1580 )" mask="url(#clip460)" />
  </g>
</svg>