<?xml version="1.0" encoding="utf-8"?>
<svg version="1.1" xmlns:xlink="http://www.w3.org/1999/xlink" width="20px" height="22px" xmlns="http://www.w3.org/2000/svg">
  <g transform="matrix(1 0 0 1 -873 -763 )">
    <path d="M 19.3269230769231 7.88783868935098  C 19.775641025641 7.97101449275362  20 8.18357487922705  20 8.52551984877127  C 20 8.72883847931107  19.8958333333333 8.95064062171812  19.6875 9.19092627599244  L 15.3245192307692 14.0982986767486  L 16.3581730769231 21.0296156269691  C 16.3661858974359 21.0943079185045  16.3701923076923 21.1867254778408  16.3701923076923 21.3068683049779  C 16.3701923076923 21.5009451795841  16.328125 21.664986347406  16.2439903846154 21.7989918084436  C 16.1598557692308 21.9329972694812  16.0376602564103 22  15.8774038461538 22  C 15.7251602564103 22  15.5649038461538 21.9445494643982  15.3966346153846 21.8336483931947  L 10 18.5620667926906  L 4.60336538461538 21.8336483931947  C 4.42708333333333 21.9445494643982  4.26682692307692 22  4.12259615384615 22  C 3.95432692307692 22  3.828125 21.9329972694812  3.74399038461538 21.7989918084436  C 3.65985576923077 21.664986347406  3.61778846153846 21.5009451795841  3.61778846153846 21.3068683049779  C 3.61778846153846 21.2514177693762  3.62580128205128 21.1590002100399  3.64182692307692 21.0296156269691  L 4.67548076923077 14.0982986767486  L 0.300480769230769 9.19092627599244  C 0.100160256410256 8.9413988657845  0 8.71959672337744  0 8.52551984877127  C 0 8.18357487922705  0.224358974358974 7.97101449275362  0.673076923076923 7.88783868935098  L 6.70673076923077 6.87586641461878  L 9.41105769230769 0.568367989918083  C 9.56330128205128 0.18945599663936  9.75961538461539 0  10 0  C 10.2403846153846 0  10.4366987179487 0.18945599663936  10.5889423076923 0.568367989918083  L 13.2932692307692 6.87586641461878  L 19.3269230769231 7.88783868935098  Z " fill-rule="nonzero" fill="#7f7f7f" stroke="none" transform="matrix(1 0 0 1 873 763 )" />
  </g>
</svg>