<?xml version="1.0" encoding="utf-8"?>
<svg version="1.1" xmlns:xlink="http://www.w3.org/1999/xlink" width="741px" height="35px" xmlns="http://www.w3.org/2000/svg">
  <g transform="matrix(1 0 0 1 -292 -3535 )">
    <path d="M 293 3543  A 7 7 0 0 1 300 3536 L 1025 3536  A 7 7 0 0 1 1032 3543 L 1032 3562  A 7 7 0 0 1 1025 3569 L 300 3569  A 7 7 0 0 1 293 3562 L 293 3543  Z " fill-rule="nonzero" fill="#ffffff" stroke="none" />
    <path d="M 292.5 3543  A 7.5 7.5 0 0 1 300 3535.5 L 1025 3535.5  A 7.5 7.5 0 0 1 1032.5 3543 L 1032.5 3562  A 7.5 7.5 0 0 1 1025 3569.5 L 300 3569.5  A 7.5 7.5 0 0 1 292.5 3562 L 292.5 3543  Z " stroke-width="1" stroke-dasharray="3,1" stroke="#6699cc" fill="none" stroke-dashoffset="0.5" />
  </g>
</svg>