<?xml version="1.0" encoding="utf-8"?>
<svg version="1.1" xmlns:xlink="http://www.w3.org/1999/xlink" width="23px" height="23px" xmlns="http://www.w3.org/2000/svg">
  <g transform="matrix(1 0 0 1 -931 -3456 )">
    <path d="M 942.5 3457  C 948.38 3457  953 3461.62  953 3467.5  C 953 3473.38  948.38 3478  942.5 3478  C 936.62 3478  932 3473.38  932 3467.5  C 932 3461.62  936.62 3457  942.5 3457  Z " fill-rule="nonzero" fill="#ff6699" stroke="none" />
    <path d="M 942.5 3457  C 948.38 3457  953 3461.62  953 3467.5  C 953 3473.38  948.38 3478  942.5 3478  C 936.62 3478  932 3473.38  932 3467.5  C 932 3461.62  936.62 3457  942.5 3457  Z " stroke-width="2" stroke="#ff9966" fill="none" />
  </g>
</svg>