<?xml version="1.0" encoding="utf-8"?>
<svg version="1.1" xmlns:xlink="http://www.w3.org/1999/xlink" width="14px" height="14px" xmlns="http://www.w3.org/2000/svg">
  <g transform="matrix(1 0 0 1 -1602 -2994 )">
    <path d="M 0.240549828178695 0.841683366733466  C 0.0801832760595629 0.935203740814962  0 1.04275217100868  0 1.16432865731463  C 0 1.28590514362057  0.0801832760595629 1.39345357381429  0.240549828178695 1.48697394789579  L 9.69415807560137 7  L 0.240549828178695 12.5130260521042  C 0.0801832760595629 12.6065464261857  0 12.7140948563794  0 12.8356713426854  C 0 12.9572478289913  0.0801832760595629 13.064796259185  0.240549828178695 13.1583166332665  L 1.44329896907216 13.8597194388778  C 1.60366552119129 13.9532398129593  1.78808705612829 14  1.99656357388316 14  C 2.20504009163803 14  2.38946162657503 13.9532398129593  2.54982817869416 13.8597194388778  L 13.7594501718213 7.32264529058116  C 13.9198167239404 7.22912491649967  14 7.12157648630594  14 7  C 14 6.87842351369405  13.9198167239404 6.77087508350033  13.7594501718213 6.67735470941884  L 2.54982817869416 0.140280561122245  C 2.38946162657503 0.0467601870407477  2.20504009163803 0  1.99656357388316 0  C 1.78808705612829 0  1.60366552119129 0.0467601870407477  1.44329896907216 0.140280561122245  L 0.240549828178695 0.841683366733466  Z " fill-rule="nonzero" fill="#81d3f8" stroke="none" transform="matrix(1 0 0 1 1602 2994 )" />
  </g>
</svg>