<?xml version="1.0" encoding="utf-8"?>
<svg version="1.1" xmlns:xlink="http://www.w3.org/1999/xlink" width="14px" height="14px" xmlns="http://www.w3.org/2000/svg">
  <g transform="matrix(1 0 0 1 -1519 -2994 )">
    <path d="M 13.7594501718213 0.841683366733466  C 13.9198167239404 0.935203740814962  14 1.04275217100868  14 1.16432865731463  C 14 1.28590514362057  13.9198167239404 1.39345357381429  13.7594501718213 1.48697394789579  L 4.30584192439863 7  L 13.7594501718213 12.5130260521042  C 13.9198167239404 12.6065464261857  14 12.7140948563794  14 12.8356713426854  C 14 12.9572478289913  13.9198167239404 13.064796259185  13.7594501718213 13.1583166332665  L 12.5567010309278 13.8597194388778  C 12.3963344788087 13.9532398129593  12.2119129438717 14  12.0034364261168 14  C 11.794959908362 14  11.610538373425 13.9532398129593  11.4501718213058 13.8597194388778  L 0.240549828178694 7.32264529058116  C 0.0801832760595648 7.22912491649967  0 7.12157648630594  0 7  C 0 6.87842351369405  0.0801832760595648 6.77087508350033  0.240549828178694 6.67735470941884  L 11.4501718213058 0.140280561122245  C 11.610538373425 0.0467601870407477  11.794959908362 0  12.0034364261168 0  C 12.2119129438717 0  12.3963344788087 0.0467601870407477  12.5567010309278 0.140280561122245  L 13.7594501718213 0.841683366733466  Z " fill-rule="nonzero" fill="#81d3f8" stroke="none" transform="matrix(1 0 0 1 1519 2994 )" />
  </g>
</svg>