<?xml version="1.0" encoding="utf-8"?>
<svg version="1.1" xmlns:xlink="http://www.w3.org/1999/xlink" width="23px" height="21px" xmlns="http://www.w3.org/2000/svg">
  <g transform="matrix(1 0 0 1 -381 -1929 )">
    <path d="M 392.5 1930  C 398.38 1930  403 1934.18  403 1939.5  C 403 1944.82  398.38 1949  392.5 1949  C 386.62 1949  382 1944.82  382 1939.5  C 382 1934.18  386.62 1930  392.5 1930  Z " fill-rule="nonzero" fill="#ff6699" stroke="none" />
    <path d="M 392.5 1930  C 398.38 1930  403 1934.18  403 1939.5  C 403 1944.82  398.38 1949  392.5 1949  C 386.62 1949  382 1944.82  382 1939.5  C 382 1934.18  386.62 1930  392.5 1930  Z " stroke-width="2" stroke="#ff9933" fill="none" />
  </g>
</svg>