<?xml version="1.0" encoding="utf-8"?>
<svg version="1.1" xmlns:xlink="http://www.w3.org/1999/xlink" width="23px" height="21px" xmlns="http://www.w3.org/2000/svg">
  <defs>
    <mask fill="white" id="clip207">
      <path d="M 0 10.5  C 0 4.61999999999995  5.06 0  11.5 0  C 17.94 0  23 4.61999999999995  23 10.5  C 23 16.38  17.94 21  11.5 21  C 6.02836818678696 21  1.55292386357058 17.6649375334896  0.330715130636634 13.0555956485559  C 0.114408899700436 12.2398353423497  0 11.3841622575011  0 10.5  Z " fill-rule="evenodd" />
    </mask>
  </defs>
  <g transform="matrix(1 0 0 1 -207 -1841 )">
    <path d="M 0 10.5  C 0 4.61999999999995  5.06 0  11.5 0  C 17.94 0  23 4.61999999999995  23 10.5  C 23 16.38  17.94 21  11.5 21  C 6.02836818678696 21  1.55292386357058 17.6649375334896  0.330715130636634 13.0555956485559  C 0.114408899700436 12.2398353423497  0 11.3841622575011  0 10.5  Z " fill-rule="nonzero" fill="#ff6699" stroke="none" transform="matrix(1 0 0 1 207 1841 )" />
    <path d="M 0 10.5  C 0 4.61999999999995  5.06 0  11.5 0  C 17.94 0  23 4.61999999999995  23 10.5  C 23 16.38  17.94 21  11.5 21  C 6.02836818678696 21  1.55292386357058 17.6649375334896  0.330715130636634 13.0555956485559  C 0.114408899700436 12.2398353423497  0 11.3841622575011  0 10.5  Z " stroke-width="4" stroke="#ff9933" fill="none" transform="matrix(1 0 0 1 207 1841 )" mask="url(#clip207)" />
  </g>
</svg>