<?xml version="1.0" encoding="utf-8"?>
<svg version="1.1" xmlns:xlink="http://www.w3.org/1999/xlink" width="12px" height="12px" viewBox="1560 634  12 12" xmlns="http://www.w3.org/2000/svg">
  <path d="M 1566 634  C 1569.36 634  1572 636.64  1572 640  C 1572 643.36  1569.36 646  1566 646  C 1562.64 646  1560 643.36  1560 640  C 1560 636.64  1562.64 634  1566 634  Z " fill-rule="nonzero" fill="#ffffff" stroke="none" />
  <path d="M 1566 634.5  C 1569.08 634.5  1571.5 636.92  1571.5 640  C 1571.5 643.08  1569.08 645.5  1566 645.5  C 1562.92 645.5  1560.5 643.08  1560.5 640  C 1560.5 636.92  1562.92 634.5  1566 634.5  Z " stroke-width="1" stroke="#797979" fill="none" />
  <path d="M 1566 643  C 1564.32 643  1563 641.68  1563 640  C 1563 638.32  1564.32 637  1566 637  C 1567.68 637  1569 638.32  1569 640  C 1569 641.68  1567.68 643  1566 643  " fill-rule="nonzero" fill="#797979" stroke="none" />
</svg>