<?xml version="1.0" encoding="utf-8"?>
<svg version="1.1" xmlns:xlink="http://www.w3.org/1999/xlink" width="12px" height="12px" viewBox="1560 684  12 12" xmlns="http://www.w3.org/2000/svg">
  <path d="M 1566 684  C 1569.36 684  1572 686.64  1572 690  C 1572 693.36  1569.36 696  1566 696  C 1562.64 696  1560 693.36  1560 690  C 1560 686.64  1562.64 684  1566 684  Z " fill-rule="nonzero" fill="#ffffff" stroke="none" />
  <path d="M 1566 684.5  C 1569.08 684.5  1571.5 686.92  1571.5 690  C 1571.5 693.08  1569.08 695.5  1566 695.5  C 1562.92 695.5  1560.5 693.08  1560.5 690  C 1560.5 686.92  1562.92 684.5  1566 684.5  Z " stroke-width="1" stroke="#797979" fill="none" />
  <path d="M 1566 693  C 1564.32 693  1563 691.68  1563 690  C 1563 688.32  1564.32 687  1566 687  C 1567.68 687  1569 688.32  1569 690  C 1569 691.68  1567.68 693  1566 693  " fill-rule="nonzero" fill="#797979" stroke="none" />
</svg>