<?xml version="1.0" encoding="utf-8"?>
<svg version="1.1" xmlns:xlink="http://www.w3.org/1999/xlink" width="12px" height="12px" viewBox="1560 589  12 12" xmlns="http://www.w3.org/2000/svg">
  <path d="M 1566 589  C 1569.36 589  1572 591.64  1572 595  C 1572 598.36  1569.36 601  1566 601  C 1562.64 601  1560 598.36  1560 595  C 1560 591.64  1562.64 589  1566 589  Z " fill-rule="nonzero" fill="#ffffff" stroke="none" />
  <path d="M 1566 589.5  C 1569.08 589.5  1571.5 591.92  1571.5 595  C 1571.5 598.08  1569.08 600.5  1566 600.5  C 1562.92 600.5  1560.5 598.08  1560.5 595  C 1560.5 591.92  1562.92 589.5  1566 589.5  Z " stroke-width="1" stroke="#797979" fill="none" />
  <path d="M 1566 598  C 1564.32 598  1563 596.68  1563 595  C 1563 593.32  1564.32 592  1566 592  C 1567.68 592  1569 593.32  1569 595  C 1569 596.68  1567.68 598  1566 598  " fill-rule="nonzero" fill="#797979" stroke="none" />
</svg>