<?xml version="1.0" encoding="utf-8"?>
<svg version="1.1" xmlns:xlink="http://www.w3.org/1999/xlink" width="19px" height="17px" xmlns="http://www.w3.org/2000/svg">
  <g transform="matrix(1 0 0 1 -860 -1531 )">
    <path d="M 14.6020979020979 8.5  L 18.1363636363636 10.2044270833333  C 18.5438228438228 10.3962673611111  18.8073426573427 10.6821831597222  18.9269230769231 11.0621744791667  C 19.0465034965035 11.4421657986111  18.9911421911422 11.8018663194444  18.7608391608392 12.1412760416667  L 17.9104895104895 13.3587239583333  C 17.6801864801865 13.6981336805556  17.3369463869464 13.9176432291667  16.8807692307692 14.0172526041667  C 16.4245920745921 14.1168619791667  15.9927738927739 14.0707465277778  15.5853146853147 13.87890625  L 12.051048951049 12.185546875  L 12.051048951049 15.5833333333333  C 12.051048951049 15.9670138888889  11.8827505827506 16.2990451388889  11.5461538461538 16.5794270833333  C 11.2095571095571 16.8598090277778  10.8109557109557 17  10.3503496503496 17  L 8.64965034965035 17  C 8.18904428904429 17  7.79044289044289 16.8598090277778  7.45384615384615 16.5794270833333  C 7.11724941724942 16.2990451388889  6.94895104895105 15.9670138888889  6.94895104895105 15.5833333333333  L 6.94895104895105 12.185546875  L 3.41468531468531 13.87890625  C 3.00722610722611 14.0707465277778  2.57540792540793 14.1168619791667  2.11923076923077 14.0172526041667  C 1.66305361305361 13.9176432291667  1.31981351981352 13.6981336805556  1.08951048951049 13.3587239583333  L 0.239160839160839 12.1412760416667  C 0.00885780885780892 11.8018663194444  -0.0465034965034965 11.4421657986111  0.0730769230769231 11.0621744791667  C 0.192657342657343 10.6821831597222  0.456177156177156 10.3962673611111  0.863636363636364 10.2044270833333  L 4.3979020979021 8.5  L 0.863636363636364 6.79557291666667  C 0.456177156177156 6.60373263888889  0.192657342657343 6.31781684027778  0.0730769230769231 5.93782552083333  C -0.0465034965034965 5.55783420138889  0.00885780885780892 5.19813368055555  0.239160839160839 4.85872395833333  L 1.08951048951049 3.64127604166667  C 1.31981351981352 3.30186631944444  1.66305361305361 3.08235677083333  2.11923076923077 2.98274739583333  C 2.57540792540793 2.88313802083333  3.00722610722611 2.92925347222222  3.41468531468531 3.12109375  L 6.94895104895105 4.814453125  L 6.94895104895105 1.41666666666667  C 6.94895104895105 1.03298611111111  7.11724941724942 0.70095486111111  7.45384615384615 0.420572916666667  C 7.79044289044289 0.140190972222221  8.18904428904429 0  8.64965034965035 0  L 10.3503496503496 0  C 10.8109557109557 0  11.2095571095571 0.140190972222221  11.5461538461538 0.420572916666667  C 11.8827505827506 0.70095486111111  12.051048951049 1.03298611111111  12.051048951049 1.41666666666667  L 12.051048951049 4.814453125  L 15.5853146853147 3.12109375  C 15.9927738927739 2.92925347222222  16.4245920745921 2.88313802083333  16.8807692307692 2.98274739583333  C 17.3369463869464 3.08235677083333  17.6801864801865 3.30186631944444  17.9104895104895 3.64127604166667  L 18.7608391608392 4.85872395833333  C 18.9911421911422 5.19813368055555  19.0465034965035 5.55783420138889  18.9269230769231 5.93782552083333  C 18.8073426573427 6.31781684027778  18.5438228438228 6.60373263888889  18.1363636363636 6.79557291666667  L 14.6020979020979 8.5  Z " fill-rule="nonzero" fill="#facd91" stroke="none" transform="matrix(1 0 0 1 860 1531 )" />
  </g>
</svg>