<?xml version="1.0" encoding="utf-8"?>
<svg version="1.1" xmlns:xlink="http://www.w3.org/1999/xlink" width="23px" height="11px" xmlns="http://www.w3.org/2000/svg">
  <g transform="matrix(1 0 0 1 -1109 -1531 )">
    <path d="M 23 2.43913043478261  C 23 2.62689210950081  22.9096360628619 2.78808373590982  22.7289081885856 2.92270531400966  L 12.1420595533499 10.7980676328502  C 11.9613316790736 10.9326892109501  11.747311827957 11  11.5 11  C 11.252688172043 11  11.0386683209264 10.9326892109501  10.8579404466501 10.7980676328502  L 0.271091811414392 2.92270531400966  C 0.0903639371381308 2.78808373590982  0 2.62689210950081  0 2.43913043478261  C 0 2.25136876006441  0.0903639371381308 2.09017713365539  0.271091811414392 1.95555555555556  L 2.63957816377171 0.201932367149758  C 2.82030603804797 0.0673107890499191  3.0343258891646 0  3.28163771712159 0  C 3.52894954507858 0  3.7429693961952 0.0673107890499191  3.92369727047146 0.201932367149758  L 11.5 5.84541062801932  L 19.0763027295285 0.201932367149758  C 19.2570306038048 0.0673107890499191  19.4710504549214 0  19.7183622828784 0  C 19.9656741108354 0  20.179693961952 0.0673107890499191  20.3604218362283 0.201932367149758  L 22.7289081885856 1.95555555555556  C 22.9096360628619 2.09017713365539  23 2.25136876006441  23 2.43913043478261  Z " fill-rule="nonzero" fill="#7f7f7f" stroke="none" transform="matrix(1 0 0 1 1109 1531 )" />
  </g>
</svg>