<?xml version="1.0" encoding="utf-8"?>
<svg version="1.1" xmlns:xlink="http://www.w3.org/1999/xlink" width="23px" height="11px" xmlns="http://www.w3.org/2000/svg">
  <g transform="matrix(1 0 0 1 -1109 -1702 )">
    <path d="M 23 8.56086956521739  C 23 8.3731078904992  22.9096360628619 8.21191626409018  22.7289081885856 8.07729468599034  L 12.1420595533499 0.201932367149758  C 11.9613316790736 0.0673107890499191  11.747311827957 0  11.5 0  C 11.252688172043 0  11.0386683209264 0.0673107890499191  10.8579404466501 0.201932367149758  L 0.271091811414392 8.07729468599034  C 0.0903639371381308 8.21191626409018  0 8.3731078904992  0 8.56086956521739  C 0 8.74863123993559  0.0903639371381308 8.90982286634461  0.271091811414392 9.04444444444444  L 2.63957816377171 10.7980676328502  C 2.82030603804797 10.9326892109501  3.0343258891646 11  3.28163771712159 11  C 3.52894954507858 11  3.7429693961952 10.9326892109501  3.92369727047146 10.7980676328502  L 11.5 5.15458937198068  L 19.0763027295285 10.7980676328502  C 19.2570306038048 10.9326892109501  19.4710504549214 11  19.7183622828784 11  C 19.9656741108354 11  20.179693961952 10.9326892109501  20.3604218362283 10.7980676328502  L 22.7289081885856 9.04444444444444  C 22.9096360628619 8.90982286634461  23 8.74863123993559  23 8.56086956521739  Z " fill-rule="nonzero" fill="#7f7f7f" stroke="none" transform="matrix(1 0 0 1 1109 1702 )" />
  </g>
</svg>