<?xml version="1.0" encoding="utf-8"?>
<svg version="1.1" xmlns:xlink="http://www.w3.org/1999/xlink" width="13px" height="16px" xmlns="http://www.w3.org/2000/svg">
  <g transform="matrix(1 0 0 1 -1024 -987 )">
    <path d="M 12.7414772727273 6.13636363636364  C 12.9138257575758 6.34848484848485  13 6.60606060606061  13 6.90909090909091  L 13 9.09090909090909  C 13 9.39393939393939  12.9138257575758 9.65151515151515  12.7414772727273 9.86363636363636  C 12.5691287878788 10.0757575757576  12.3598484848485 10.1818181818182  12.1136363636364 10.1818181818182  L 8.27272727272727 10.1818181818182  L 8.27272727272727 14.9090909090909  C 8.27272727272727 15.2121212121212  8.18655303030303 15.469696969697  8.01420454545455 15.6818181818182  C 7.84185606060606 15.8939393939394  7.63257575757576 16  7.38636363636364 16  L 5.61363636363636 16  C 5.36742424242424 16  5.15814393939394 15.8939393939394  4.98579545454546 15.6818181818182  C 4.81344696969697 15.469696969697  4.72727272727273 15.2121212121212  4.72727272727273 14.9090909090909  L 4.72727272727273 10.1818181818182  L 0.886363636363636 10.1818181818182  C 0.640151515151515 10.1818181818182  0.430871212121212 10.0757575757576  0.258522727272727 9.86363636363636  C 0.0861742424242424 9.65151515151515  0 9.39393939393939  0 9.09090909090909  L 0 6.90909090909091  C 0 6.60606060606061  0.0861742424242424 6.34848484848485  0.258522727272727 6.13636363636364  C 0.430871212121212 5.92424242424242  0.640151515151515 5.81818181818182  0.886363636363636 5.81818181818182  L 4.72727272727273 5.81818181818182  L 4.72727272727273 1.09090909090909  C 4.72727272727273 0.787878787878787  4.81344696969697 0.530303030303029  4.98579545454546 0.318181818181818  C 5.15814393939394 0.106060606060606  5.36742424242424 0  5.61363636363636 0  L 7.38636363636364 0  C 7.63257575757576 0  7.84185606060606 0.106060606060606  8.01420454545455 0.318181818181818  C 8.18655303030303 0.530303030303029  8.27272727272727 0.787878787878787  8.27272727272727 1.09090909090909  L 8.27272727272727 5.81818181818182  L 12.1136363636364 5.81818181818182  C 12.3598484848485 5.81818181818182  12.5691287878788 5.92424242424242  12.7414772727273 6.13636363636364  Z " fill-rule="nonzero" fill="#ffffff" stroke="none" transform="matrix(1 0 0 1 1024 987 )" />
  </g>
</svg>