<?xml version="1.0" encoding="utf-8"?>
<svg version="1.1" xmlns:xlink="http://www.w3.org/1999/xlink" width="13px" height="11px" xmlns="http://www.w3.org/2000/svg">
  <g transform="matrix(1 0 0 1 -1884 -3957 )">
    <path d="M 7.35773942093541 9.24489182692308  C 7.40358203414996 9.20302483974359  7.42650334075724 9.15124198717949  7.42650334075724 9.08954326923077  L 7.42650334075724 7.83353365384615  C 7.42650334075724 7.77183493589744  7.40358203414996 7.72005208333333  7.35773942093541 7.67818509615385  C 7.31189680772086 7.63631810897436  7.25760950259837 7.61538461538462  7.19487750556793 7.61538461538462  L 5.80512249443207 7.61538461538462  C 5.74239049740163 7.61538461538462  5.68810319227914 7.63631810897436  5.64226057906459 7.67818509615385  C 5.59641796585004 7.72005208333333  5.57349665924276 7.77183493589744  5.57349665924276 7.83353365384615  L 5.57349665924276 9.08954326923077  C 5.57349665924276 9.15124198717949  5.59641796585004 9.20302483974359  5.64226057906459 9.24489182692308  C 5.68810319227914 9.28675881410256  5.74239049740163 9.30769230769231  5.80512249443207 9.30769230769231  L 7.19487750556793 9.30769230769231  C 7.25760950259837 9.30769230769231  7.31189680772086 9.28675881410256  7.35773942093541 9.24489182692308  Z M 7.33602449888641 6.72626201923077  C 7.38186711210097 6.69761618589744  7.4072011878248 6.66125801282051  7.41202672605791 6.6171875  L 7.54231625835189 3.58293269230769  C 7.54231625835189 3.53004807692308  7.51818856718634 3.48818108974359  7.46993318485523 3.45733173076923  C 7.4072011878248 3.40885416666667  7.34929472902747 3.38461538461539  7.29621380846325 3.38461538461539  L 5.70378619153675 3.38461538461539  C 5.65070527097253 3.38461538461539  5.5927988121752 3.40885416666667  5.53006681514477 3.45733173076923  C 5.48181143281366 3.48818108974359  5.45768374164811 3.53445512820513  5.45768374164811 3.59615384615385  L 5.58073496659243 6.6171875  C 5.58073496659243 6.66125801282051  5.60486265775798 6.69761618589744  5.65311804008909 6.72626201923077  C 5.70137342242019 6.7549078525641  5.75927988121752 6.76923076923077  5.82683741648107 6.76923076923077  L 7.16592427616926 6.76923076923077  C 7.23348181143281 6.76923076923077  7.29018188567186 6.7549078525641  7.33602449888641 6.72626201923077  Z M 6.97048997772829 0.118990384615385  C 7.1152561247216 0.198317307692308  7.2286562731997 0.306290064102563  7.31069042316258 0.442908653846154  L 12.869710467706 9.75060096153846  C 13.0386043058649 10.0282451923077  13.0337787676318 10.3058894230769  12.8552338530067 10.5835336538462  C 12.7731997030438 10.7113381410256  12.661005939124 10.8127003205128  12.5186525612472 10.8876201923077  C 12.3762991833705 10.9625400641026  12.2230883444692 11  12.0590200445434 11  L 0.94097995545657 11  C 0.776911655530809 11  0.623700816629547 10.9625400641026  0.481347438752784 10.8876201923077  C 0.338994060876021 10.8127003205128  0.226800296956199 10.7113381410256  0.144766146993318 10.5835336538462  C -0.0337787676317743 10.3058894230769  -0.0386043058648849 10.0282451923077  0.130289532293987 9.75060096153846  L 5.68930957683742 0.442908653846154  C 5.7713437268003 0.306290064102563  5.8847438752784 0.198317307692308  6.02951002227171 0.118990384615385  C 6.17427616926503 0.039663461538462  6.33110616184113 0  6.5 0  C 6.66889383815887 0  6.82572383073497 0.039663461538462  6.97048997772829 0.118990384615385  Z " fill-rule="nonzero" fill="#02a7f0" stroke="none" transform="matrix(1 0 0 1 1884 3957 )" />
  </g>
</svg>