<?xml version="1.0" encoding="utf-8"?>
<svg version="1.1" xmlns:xlink="http://www.w3.org/1999/xlink" width="19px" height="20px" xmlns="http://www.w3.org/2000/svg">
  <g transform="matrix(1 0 0 1 -838 -3088 )">
    <path d="M 8.8609865470852 15  L 9.45739910313901 15  L 10.6928251121076 13.3522727272727  L 9.07399103139013 11.1931818181818  L 7.83856502242153 12.8409090909091  L 7.83856502242153 13.6363636363636  L 8.8609865470852 13.6363636363636  L 8.8609865470852 15  Z M 14.1328475336323 5.24147727272727  C 14.2535500747384 5.08049242424242  14.2571001494768 4.92424242424242  14.1434977578475 4.77272727272727  C 14.0298953662182 4.62121212121212  13.9127428998505 4.62594696969697  13.7920403587444 4.78693181818182  L 10.0644618834081 9.75852272727273  C 9.94375934230194 9.91950757575758  9.94020926756353 10.0757575757576  10.0538116591928 10.2272727272727  C 10.1674140508221 10.3787878787879  10.2845665171898 10.374053030303  10.405269058296 10.2130681818182  L 14.1328475336323 5.24147727272727  Z M 14.7825112107623 12.7982954545455  C 14.924514200299 12.874053030303  14.9955156950673 13.0113636363636  14.9955156950673 13.2102272727273  L 14.9955156950673 15.9090909090909  C 14.9955156950673 17.0359848484848  14.6955343796712 17.9995265151515  14.0955717488789 18.7997159090909  C 13.4956091180867 19.5999053030303  12.7731689088191 20  11.9282511210762 20  L 3.06726457399103 20  C 2.22234678624813 20  1.49990657698057 19.5999053030303  0.899943946188341 18.7997159090909  C 0.299981315396114 17.9995265151515  0 17.0359848484848  0 15.9090909090909  L 0 4.09090909090909  C 0 2.96401515151515  0.299981315396114 2.00047348484848  0.899943946188341 1.20028409090909  C 1.49990657698057 0.400094696969695  2.22234678624813 0  3.06726457399103 0  L 11.9282511210762 0  C 12.3755605381166 0  12.7909192825112 0.118371212121211  13.1743273542601 0.355113636363635  C 13.2808295964126 0.421401515151514  13.344730941704 0.53030303030303  13.3660313901345 0.681818181818181  C 13.387331838565 0.84280303030303  13.3553811659193 0.980113636363635  13.2701793721973 1.09375  L 12.7483183856502 1.78977272727273  C 12.6489162929746 1.92234848484848  12.5353139013453 1.96022727272727  12.4075112107623 1.90340909090909  C 12.2442077727952 1.84659090909091  12.0844544095665 1.81818181818182  11.9282511210762 1.81818181818182  L 3.06726457399103 1.81818181818182  C 2.59865470852018 1.81818181818182  2.19749626307922 2.0407196969697  1.86378923766816 2.48579545454545  C 1.5300822122571 2.93087121212121  1.36322869955157 3.46590909090909  1.36322869955157 4.09090909090909  L 1.36322869955157 15.9090909090909  C 1.36322869955157 16.5340909090909  1.5300822122571 17.0691287878788  1.86378923766816 17.5142045454545  C 2.19749626307922 17.9592803030303  2.59865470852018 18.1818181818182  3.06726457399103 18.1818181818182  L 11.9282511210762 18.1818181818182  C 12.3968609865471 18.1818181818182  12.798019431988 17.9592803030303  13.1317264573991 17.5142045454545  C 13.4654334828102 17.0691287878788  13.6322869955157 16.5340909090909  13.6322869955157 15.9090909090909  L 13.6322869955157 14.1193181818182  C 13.6322869955157 13.9962121212121  13.6642376681614 13.8920454545455  13.7281390134529 13.8068181818182  L 14.4097533632287 12.8977272727273  C 14.5162556053812 12.7556818181818  14.6405082212257 12.7225378787879  14.7825112107623 12.7982954545455  Z M 6.81614349775785 12.2727272727273  L 13.9730941704036 2.72727272727273  L 17.0403587443946 6.81818181818182  L 9.88340807174888 16.3636363636364  L 6.81614349775785 16.3636363636364  L 6.81614349775785 12.2727272727273  Z M 19 3.63636363636364  C 19 4.01515151515151  18.9005979073244 4.33712121212121  18.7017937219731 4.60227272727273  L 17.7219730941704 5.90909090909091  L 14.6547085201794 1.81818181818182  L 15.6345291479821 0.511363636363635  C 15.8333333333333 0.246212121212119  16.0747384155456 0.113636363636365  16.3587443946188 0.113636363636365  C 16.6427503736921 0.113636363636365  16.8841554559043 0.246212121212119  17.0829596412556 0.511363636363635  L 18.7017937219731 2.67045454545455  C 18.9005979073244 2.93560606060606  19 3.25757575757576  19 3.63636363636364  Z " fill-rule="nonzero" fill="#000000" stroke="none" transform="matrix(1 0 0 1 838 3088 )" />
  </g>
</svg>