<?xml version="1.0" encoding="utf-8"?>
<svg version="1.1" xmlns:xlink="http://www.w3.org/1999/xlink" width="22px" height="26px" xmlns="http://www.w3.org/2000/svg">
  <g transform="matrix(1 0 0 1 -997 -1379 )">
    <path d="M 21.4814814814815 19.4343434343434  C 21.8271604938272 19.8428731762065  22 20.3389450056117  22 20.9225589225589  C 22 21.5061728395062  21.8271604938272 22.0022446689113  21.4814814814815 22.4107744107744  L 18.962962962963 25.3872053872054  C 18.6172839506173 25.7957351290685  18.1975308641975 26  17.7037037037037 26  C 17.2098765432099 26  16.7901234567901 25.7957351290685  16.4444444444444 25.3872053872054  L 11 18.952861952862  L 5.55555555555556 25.3872053872054  C 5.20987654320988 25.7957351290685  4.79012345679012 26  4.2962962962963 26  C 3.80246913580247 26  3.38271604938272 25.7957351290685  3.03703703703704 25.3872053872054  L 0.518518518518518 22.4107744107744  C 0.17283950617284 22.0022446689113  0 21.5061728395062  0 20.9225589225589  C 0 20.3389450056117  0.17283950617284 19.8428731762065  0.518518518518518 19.4343434343434  L 5.96296296296296 13  L 0.518518518518518 6.56565656565656  C 0.17283950617284 6.15712682379349  0 5.66105499438833  0 5.07744107744108  C 0 4.49382716049383  0.17283950617284 3.99775533108866  0.518518518518518 3.58922558922559  L 3.03703703703704 0.612794612794613  C 3.38271604938272 0.204264870931537  3.80246913580247 0  4.2962962962963 0  C 4.79012345679012 0  5.20987654320988 0.204264870931537  5.55555555555556 0.612794612794613  L 11 7.04713804713805  L 16.4444444444444 0.612794612794613  C 16.7901234567901 0.204264870931537  17.2098765432099 0  17.7037037037037 0  C 18.1975308641975 0  18.6172839506173 0.204264870931537  18.962962962963 0.612794612794613  L 21.4814814814815 3.58922558922559  C 21.8271604938272 3.99775533108866  22 4.49382716049383  22 5.07744107744108  C 22 5.66105499438833  21.8271604938272 6.15712682379349  21.4814814814815 6.56565656565656  L 16.037037037037 13  L 21.4814814814815 19.4343434343434  Z " fill-rule="nonzero" fill="#ffffff" stroke="none" transform="matrix(1 0 0 1 997 1379 )" />
  </g>
</svg>