<?xml version="1.0" encoding="utf-8"?>
<svg version="1.1" xmlns:xlink="http://www.w3.org/1999/xlink" width="20px" height="18px" xmlns="http://www.w3.org/2000/svg">
  <g transform="matrix(1 0 0 1 -193 -365 )">
    <path d="M 17.1251548946716 10.2837100545596  C 17.1334159438249 10.3024162120031  17.1375464684015 10.3304754481684  17.1375464684015 10.3678877630553  L 17.1375464684015 17.1021044427124  C 17.1375464684015 17.3452844894778  17.0590665014457 17.5557287607171  16.9021065675341 17.7334372564302  C 16.7451466336225 17.9111457521434  16.5592730276745 18  16.3444857496902 18  L 11.5861214374226 18  L 11.5861214374226 12.6126266562744  L 8.41387856257745 12.6126266562744  L 8.41387856257745 18  L 3.65551425030979 18  C 3.44072697232549 18  3.25485336637753 17.9111457521434  3.09789343246592 17.7334372564302  C 2.94093349855432 17.5557287607171  2.86245353159851 17.3452844894778  2.86245353159851 17.1021044427124  L 2.86245353159851 10.3678877630553  C 2.86245353159851 10.3585346843336  2.86451879388682 10.344505066251  2.86864931846345 10.3257989088075  C 2.87277984304007 10.307092751364  2.87484510532838 10.2930631332814  2.87484510532838 10.2837100545596  L 10 3.63367108339829  L 17.1251548946716 10.2837100545596  Z M 19.9876084262701 9.0701480904131  C 19.9958694754234 9.19641465315666  19.966955803387 9.30631332813718  19.9008674101611 9.39984411535464  L 19.1325898389095 10.4380358534684  C 19.0665014456836 10.5222135619641  18.9797604295746 10.5736554949337  18.8723667905824 10.5923616523772  L 18.8351920693928 10.5923616523772  C 18.7277984304007 10.5923616523772  18.6410574142916 10.5596258768511  18.5749690210657 10.4941543257989  L 10 2.39906469212783  L 1.42503097893432 10.4941543257989  C 1.32589838909542 10.5689789555729  1.22676579925651 10.601714731099  1.1276332094176 10.5923616523772  C 1.02023957042544 10.5736554949337  0.933498554316398 10.5222135619641  0.867410161090458 10.4380358534684  L 0.0991325898389095 9.39984411535464  C 0.0330441966129699 9.30631332813718  0.00413052457662126 9.19641465315666  0.0123915737298637 9.0701480904131  C 0.0206526228831062 8.94388152766953  0.0660883932259397 8.84333593141076  0.148698884758364 8.76851130163679  L 9.05824039653036 0.364770070148091  C 9.32259396943412 0.121590023382695  9.63651383725733 0  10 0  C 10.3634861627427 0  10.6774060305659 0.121590023382695  10.9417596034696 0.364770070148091  L 13.9653035935564 3.22681215900234  L 13.9653035935564 0.491036632891659  C 13.9653035935564 0.360093530787216  14.002478314746 0.252533125487139  14.0768277571252 0.168355416991427  C 14.1511771995043 0.0841777084957136  14.2461792647666 0.0420888542478568  14.361833952912 0.0420888542478568  L 16.7410161090459 0.0420888542478568  C 16.8566707971912 0.0420888542478568  16.9516728624535 0.0841777084957136  17.0260223048327 0.168355416991427  C 17.1003717472119 0.252533125487139  17.1375464684015 0.360093530787216  17.1375464684015 0.491036632891659  L 17.1375464684015 6.21512081060016  L 19.8513011152416 8.76851130163679  C 19.9339116067741 8.84333593141076  19.9793473771169 8.94388152766953  19.9876084262701 9.0701480904131  Z " fill-rule="nonzero" fill="#606c7d" stroke="none" transform="matrix(1 0 0 1 193 365 )" />
  </g>
</svg>