<?xml version="1.0" encoding="utf-8"?>
<svg version="1.1" xmlns:xlink="http://www.w3.org/1999/xlink" width="23px" height="23px" xmlns="http://www.w3.org/2000/svg">
  <defs>
    <mask fill="white" id="clip1762">
      <path d="M 0 11.5  C 0 5.05999999999995  5.05999999999995 0  11.5 0  C 17.9400000000001 0  23 5.05999999999995  23 11.5  C 23 17.9400000000001  17.9400000000001 23  11.5 23  C 6.3407789756011 23  2.06723546601813 19.7525157790085  0.571463075919837 15.1496409416943  C 0.200136896936101 14.0069751611288  0 12.7807789756012  0 11.5  Z " fill-rule="evenodd" />
    </mask>
  </defs>
  <g transform="matrix(1 0 0 1 -648 -1152 )">
    <path d="M 0 11.5  C 0 5.05999999999995  5.05999999999995 0  11.5 0  C 17.9400000000001 0  23 5.05999999999995  23 11.5  C 23 17.9400000000001  17.9400000000001 23  11.5 23  C 6.3407789756011 23  2.06723546601813 19.7525157790085  0.571463075919837 15.1496409416943  C 0.200136896936101 14.0069751611288  0 12.7807789756012  0 11.5  Z " fill-rule="nonzero" fill="#ff6699" stroke="none" transform="matrix(1 0 0 1 648 1152 )" />
    <path d="M 0 11.5  C 0 5.05999999999995  5.05999999999995 0  11.5 0  C 17.9400000000001 0  23 5.05999999999995  23 11.5  C 23 17.9400000000001  17.9400000000001 23  11.5 23  C 6.3407789756011 23  2.06723546601813 19.7525157790085  0.571463075919837 15.1496409416943  C 0.200136896936101 14.0069751611288  0 12.7807789756012  0 11.5  Z " stroke-width="4" stroke="#ff9933" fill="none" transform="matrix(1 0 0 1 648 1152 )" mask="url(#clip1762)" />
  </g>
</svg>