<?xml version="1.0" encoding="utf-8"?>
<svg version="1.1" xmlns:xlink="http://www.w3.org/1999/xlink" width="9px" height="9px" xmlns="http://www.w3.org/2000/svg">
  <g transform="matrix(1 0 0 1 -149 -443 )">
    <path d="M 9 1.99565217391304  C 9 2.14927536231884  8.96464019851117 2.28115942028985  8.8939205955335 2.39130434782609  L 4.75124069478908 8.83478260869565  C 4.68052109181142 8.94492753623188  4.59677419354839 9  4.5 9  C 4.40322580645161 9  4.31947890818859 8.94492753623188  4.24875930521092 8.83478260869565  L 0.106079404466501 2.39130434782609  C 0.0353598014888338 2.28115942028985  0 2.14927536231884  0 1.99565217391304  C 0 1.84202898550725  0.0353598014888338 1.71014492753623  0.106079404466501 1.6  L 1.03287841191067 0.165217391304348  C 1.10359801488834 0.0550724637681156  1.18734491315136 0  1.28411910669975 0  C 1.38089330024814 0  1.46464019851117 0.0550724637681156  1.53535980148883 0.165217391304348  L 4.5 4.78260869565217  L 7.46464019851117 0.165217391304348  C 7.53535980148884 0.0550724637681156  7.61910669975186 0  7.71588089330025 0  C 7.81265508684864 0  7.89640198511166 0.0550724637681156  7.96712158808933 0.165217391304348  L 8.8939205955335 1.6  C 8.96464019851117 1.71014492753623  9 1.84202898550725  9 1.99565217391304  Z " fill-rule="nonzero" fill="#606c7d" stroke="none" transform="matrix(1 0 0 1 149 443 )" />
  </g>
</svg>