<?xml version="1.0" encoding="utf-8"?>
<svg version="1.1" xmlns:xlink="http://www.w3.org/1999/xlink" width="18px" height="17px" xmlns="http://www.w3.org/2000/svg">
  <g transform="matrix(1 0 0 1 -1594 -895 )">
    <path d="M 15.0234515935057 9.33309659090909  C 15.1677690920024 9.39749053030303  15.2399278412508 9.51420454545454  15.2399278412508 9.68323863636364  L 15.2399278412508 13.5227272727273  C 15.2399278412508 14.4805871212121  14.9350571256765 15.2995975378788  14.325315694528 15.9797585227273  C 13.7155742633794 16.6599195075758  12.9813589897775 17  12.1226698737222 17  L 3.11725796752856 17  C 2.25856885147324 17  1.52435357787132 16.6599195075758  0.91461214672279 15.9797585227273  C 0.304870715574263 15.2995975378788  0 14.4805871212121  0 13.5227272727273  L 0 3.47727272727273  C 0 2.51941287878788  0.304870715574263 1.70040246212121  0.91461214672279 1.02024147727273  C 1.52435357787132 0.340080492424241  2.25856885147324 0  3.11725796752856 0  L 12.1226698737222 0  C 12.5772699939868 0  12.9993986770896 0.100615530303029  13.3890559230307 0.30184659090909  C 13.4972940469032 0.358191287878787  13.5622369212267 0.450757575757575  13.5838845460012 0.579545454545454  C 13.6055321707757 0.716382575757575  13.5730607336139 0.83309659090909  13.4864702345159 0.9296875  L 12.9561034275406 1.52130681818182  C 12.8839446782922 1.60179924242424  12.8009621166566 1.64204545454545  12.7071557426338 1.64204545454545  C 12.6855081178593 1.64204545454545  12.6530366806975 1.63399621212121  12.6097414311485 1.61789772727273  C 12.4437763078773 1.56960227272727  12.2814191220686 1.54545454545455  12.1226698737222 1.54545454545455  L 3.11725796752856 1.54545454545455  C 2.64101022248948 1.54545454545455  2.23331328923632 1.73461174242424  1.89416716776909 2.11292613636364  C 1.55502104630186 2.49124053030303  1.38544798556825 2.94602272727273  1.38544798556825 3.47727272727273  L 1.38544798556825 13.5227272727273  C 1.38544798556825 14.0539772727273  1.55502104630186 14.508759469697  1.89416716776909 14.8870738636364  C 2.23331328923632 15.2653882575758  2.64101022248948 15.4545454545455  3.11725796752856 15.4545454545455  L 12.1226698737222 15.4545454545455  C 12.5989176187613 15.4545454545455  13.0066145520144 15.2653882575758  13.3457606734817 14.8870738636364  C 13.6849067949489 14.508759469697  13.8544798556825 14.0539772727273  13.8544798556825 13.5227272727273  L 13.8544798556825 10.4559659090909  C 13.8544798556825 10.3513257575758  13.8869512928443 10.2627840909091  13.9518941671678 10.1903409090909  L 14.6446181599519 9.41761363636364  C 14.7167769092002 9.33712121212121  14.7997594708358 9.296875  14.8935658448587 9.296875  C 14.9368610944077 9.296875  14.9801563439567 9.30894886363636  15.0234515935057 9.33309659090909  Z M 18 3.09090909090909  C 18 3.35653409090909  17.913409500902 3.5859375  17.740228502706 3.77911931818182  L 8.92964521948286 13.6072443181818  C 8.75646422128683 13.8004261363636  8.55081178592905 13.8970170454545  8.3126879134095 13.8970170454545  C 8.07456404088996 13.8970170454545  7.86891160553217 13.8004261363636  7.69573060733614 13.6072443181818  L 3.0414912808178 8.41548295454545  C 2.86831028262177 8.22230113636364  2.78171978352375 7.99289772727273  2.78171978352375 7.72727272727273  C 2.78171978352375 7.46164772727273  2.86831028262177 7.23224431818182  3.0414912808178 7.0390625  L 4.23211064341551 5.7109375  C 4.40529164161155 5.51775568181818  4.61094407696933 5.42116477272727  4.84906794948888 5.42116477272727  C 5.08719182200842 5.42116477272727  5.29284425736621 5.51775568181818  5.46602525556224 5.7109375  L 8.3126879134095 8.88636363636364  L 15.3156945279615 1.07457386363636  C 15.4888755261575 0.881392045454546  15.6945279615153 0.784801136363636  15.9326518340349 0.784801136363636  C 16.1707757065544 0.784801136363636  16.3764281419122 0.881392045454546  16.5496091401082 1.07457386363636  L 17.740228502706 2.40269886363636  C 17.913409500902 2.59588068181818  18 2.82528409090909  18 3.09090909090909  Z " fill-rule="nonzero" fill="#f2f2f2" stroke="none" transform="matrix(1 0 0 1 1594 895 )" />
  </g>
</svg>