<?xml version="1.0" encoding="utf-8"?>
<svg version="1.1" xmlns:xlink="http://www.w3.org/1999/xlink" width="20px" height="23px" xmlns="http://www.w3.org/2000/svg">
  <g transform="matrix(1 0 0 1 -335 -1744 )">
    <path d="M 345 1745  C 350.04 1745  354 1749.62  354 1755.5  C 354 1761.38  350.04 1766  345 1766  C 339.96 1766  336 1761.38  336 1755.5  C 336 1749.62  339.96 1745  345 1745  Z " fill-rule="nonzero" fill="#ff6699" stroke="none" />
    <path d="M 345 1745  C 350.04 1745  354 1749.62  354 1755.5  C 354 1761.38  350.04 1766  345 1766  C 339.96 1766  336 1761.38  336 1755.5  C 336 1749.62  339.96 1745  345 1745  Z " stroke-width="2" stroke="#ff9933" fill="none" />
  </g>
</svg>