<?xml version="1.0" encoding="utf-8"?>
<svg version="1.1" xmlns:xlink="http://www.w3.org/1999/xlink" width="29px" height="13px" xmlns="http://www.w3.org/2000/svg">
  <g transform="matrix(1 0 0 1 -1767 -2082 )">
    <path d="M 28.7094188376754 11.659793814433  C 28.9031396125585 11.5108820160367  29 11.3396334478809  29 11.1460481099656  C 29 10.9524627720504  28.9031396125585 10.7812142038946  28.7094188376754 10.6323024054983  L 15.1683366733467 0.223367697594502  C 14.9746158984636 0.0744558991981713  14.751837007348 0  14.5 0  C 14.248162992652 0  14.0253841015364 0.0744558991981713  13.8316633266533 0.223367697594502  L 0.290581162324649 10.6323024054983  C 0.0968603874415501 10.7812142038946  0 10.9524627720504  0 11.1460481099656  C 0 11.3396334478809  0.0968603874415501 11.5108820160367  0.290581162324649 11.659793814433  L 1.7434869739479 12.7766323024055  C 1.937207748831 12.9255441008018  2.15998663994656 13  2.41182364729459 13  C 2.66366065464262 13  2.88643954575818 12.9255441008018  3.08016032064128 12.7766323024055  L 14.5 3.99828178694158  L 25.9198396793587 12.7766323024055  C 26.1135604542418 12.9255441008018  26.3363393453574 13  26.5881763527054 13  C 26.8400133600534 13  27.062792251169 12.9255441008018  27.2565130260521 12.7766323024055  L 28.7094188376754 11.659793814433  Z " fill-rule="nonzero" fill="#7f7f7f" stroke="none" transform="matrix(1 0 0 1 1767 2082 )" />
  </g>
</svg>