<?xml version="1.0" encoding="utf-8"?>
<svg version="1.1" xmlns:xlink="http://www.w3.org/1999/xlink" width="23px" height="23px" xmlns="http://www.w3.org/2000/svg">
  <defs>
    <mask fill="white" id="clip150">
      <path d="M 0 11.5  C 0 5.05999999999995  5.05999999999995 0  11.5 0  C 13.8912563904411 0  16.092247459515 0.697639511680336  17.9145785216732 1.90452384949231  C 21.0000491018702 3.94795393491768  23 7.4512563904409  23 11.5  C 23 17.9400000000001  17.9400000000001 23  11.5 23  C 5.05999999999995 23  0 17.9400000000001  0 11.5  Z " fill-rule="evenodd" />
    </mask>
  </defs>
  <g transform="matrix(1 0 0 1 -648 -2398 )">
    <path d="M 0 11.5  C 0 5.05999999999995  5.05999999999995 0  11.5 0  C 13.8912563904411 0  16.092247459515 0.697639511680336  17.9145785216732 1.90452384949231  C 21.0000491018702 3.94795393491768  23 7.4512563904409  23 11.5  C 23 17.9400000000001  17.9400000000001 23  11.5 23  C 5.05999999999995 23  0 17.9400000000001  0 11.5  Z " fill-rule="nonzero" fill="#ff6699" stroke="none" transform="matrix(1 0 0 1 648 2398 )" />
    <path d="M 0 11.5  C 0 5.05999999999995  5.05999999999995 0  11.5 0  C 13.8912563904411 0  16.092247459515 0.697639511680336  17.9145785216732 1.90452384949231  C 21.0000491018702 3.94795393491768  23 7.4512563904409  23 11.5  C 23 17.9400000000001  17.9400000000001 23  11.5 23  C 5.05999999999995 23  0 17.9400000000001  0 11.5  Z " stroke-width="4" stroke="#ff9933" fill="none" transform="matrix(1 0 0 1 648 2398 )" mask="url(#clip150)" />
  </g>
</svg>