<?xml version="1.0" encoding="utf-8"?>
<svg version="1.1" xmlns:xlink="http://www.w3.org/1999/xlink" width="26px" height="23px" xmlns="http://www.w3.org/2000/svg">
  <defs>
    <mask fill="white" id="clip151">
      <path d="M 0 11.5  C 0 5.05999999999995  5.72 0  13 0  C 16.4655823838156 0  19.5776445186415 1.14667465377465  21.8874122113562 3.04303140587035  C 24.4296742616048 5.13026979776214  26 8.12570749337533  26 11.5  C 26 17.9400000000001  20.28 23  13 23  C 5.72 23  0 17.9400000000001  0 11.5  Z " fill-rule="evenodd" />
    </mask>
  </defs>
  <g transform="matrix(1 0 0 1 -333 -1763 )">
    <path d="M 0 11.5  C 0 5.05999999999995  5.72 0  13 0  C 16.4655823838156 0  19.5776445186415 1.14667465377465  21.8874122113562 3.04303140587035  C 24.4296742616048 5.13026979776214  26 8.12570749337533  26 11.5  C 26 17.9400000000001  20.28 23  13 23  C 5.72 23  0 17.9400000000001  0 11.5  Z " fill-rule="nonzero" fill="#ff6699" stroke="none" transform="matrix(1 0 0 1 333 1763 )" />
    <path d="M 0 11.5  C 0 5.05999999999995  5.72 0  13 0  C 16.4655823838156 0  19.5776445186415 1.14667465377465  21.8874122113562 3.04303140587035  C 24.4296742616048 5.13026979776214  26 8.12570749337533  26 11.5  C 26 17.9400000000001  20.28 23  13 23  C 5.72 23  0 17.9400000000001  0 11.5  Z " stroke-width="4" stroke="#ff9933" fill="none" transform="matrix(1 0 0 1 333 1763 )" mask="url(#clip151)" />
  </g>
</svg>