<?xml version="1.0" encoding="utf-8"?>
<svg version="1.1" xmlns:xlink="http://www.w3.org/1999/xlink" width="65px" height="58px" xmlns="http://www.w3.org/2000/svg">
  <g transform="matrix(1 0 0 1 -51 -286 )">
    <path d="M 50.9166666666667 46  L 14.0833333333333 46  C 12.59375 46.4  11.3185763888889 45.6901041666667  10.2578125 44.2703125  C 9.19704861111111 42.8505208333333  8.66666666666667 41.14375  9 39.15  L 9 7.25  C 8.66666666666667 5.25625  9.19704861111111 3.54947916666666  10.2578125 2.1296875  C 11.3185763888889 0.709895833333325  12.59375 0  14.0833333333333 0  L 50.9166666666667 0  C 52.40625 0  53.6814236111111 0.709895833333325  54.7421875 2.1296875  C 55.8029513888889 3.54947916666666  56.3333333333333 5.25625  56 7.25  L 56 39.15  C 56.3333333333333 41.14375  55.8029513888889 42.8505208333333  54.7421875 44.2703125  C 53.6814236111111 45.6901041666667  52.40625 46.4  50.9166666666667 46  Z M 13.3216145833333 6.23046875  C 13.1072048611111 6.51744791666666  13 6.85729166666666  13 7.25  L 13 39.15  C 13 39.5427083333333  13.1072048611111 39.8825520833333  13.3216145833333 40.16953125  C 13.5360243055556 40.4565104166667  13.7899305555556 40.6  14.0833333333333 40  L 50.9166666666667 40  C 51.2100694444445 40.6  51.4639756944445 40.4565104166667  51.6783854166667 40.16953125  C 51.8927951388889 39.8825520833333  52 39.5427083333333  52 39.15  L 52 7.25  C 52 6.85729166666666  51.8927951388889 6.51744791666666  51.6783854166667 6.23046875  C 51.4639756944445 5.94348958333332  51.2100694444445 5.8  50.9166666666667 6  L 14.0833333333333 6  C 13.7899305555556 5.8  13.5360243055556 5.94348958333332  13.3216145833333 6.23046875  Z M 5.41666666666667 49  L 59.5833333333333 49  L 65 49.3  L 65 53.65  C 65 54.8583333333333  64.4696180555556 55.8854166666667  63.4088541666667 56.73125  C 62.3480902777778 57.5770833333333  61.0729166666667 58  59.5833333333333 58  L 5.41666666666667 58  C 3.92708333333333 58  2.65190972222222 57.5770833333333  1.59114583333333 56.73125  C 0.530381944444445 55.8854166666667  0 54.8583333333333  0 53.65  L 0 49.3  L 5.41666666666667 49  Z M 29.7916666666667 53.65  L 35.2083333333333 53.65  C 35.5694444444445 53.65  35.75 53.4083333333333  35.75 52.925  C 35.75 52.4416666666667  35.5694444444445 52.2  35.2083333333333 52.2  L 29.7916666666667 52.2  C 29.4305555555556 52.2  29.25 52.4416666666667  29.25 52.925  C 29.25 53.4083333333333  29.4305555555556 53.65  29.7916666666667 53.65  Z " fill-rule="nonzero" fill="#aaaaaa" stroke="none" transform="matrix(1 0 0 1 51 286 )" />
  </g>
</svg>