<?xml version="1.0" encoding="utf-8"?>
<svg version="1.1" xmlns:xlink="http://www.w3.org/1999/xlink" width="25px" height="17px" xmlns="http://www.w3.org/2000/svg">
  <g transform="matrix(1 0 0 1 -705 -1041 )">
    <path d="M 24.5483870967742 2.34680134680135  C 24.8494623655914 2.61391694725028  25 2.93827160493827  25 3.31986531986532  C 25 3.70145903479237  24.8494623655914 4.02581369248036  24.5483870967742 4.29292929292929  L 12.8709677419355 14.6531986531987  L 10.6774193548387 16.5993265993266  C 10.3763440860215 16.8664421997755  10.010752688172 17  9.58064516129032 17  C 9.1505376344086 17  8.78494623655914 16.8664421997755  8.48387096774194 16.5993265993266  L 6.29032258064516 14.6531986531987  L 0.451612903225806 9.47306397306397  C 0.150537634408602 9.20594837261504  0 8.88159371492705  0 8.5  C 0 8.11840628507295  0.150537634408602 7.79405162738496  0.451612903225806 7.52693602693603  L 2.64516129032258 5.58080808080808  C 2.94623655913979 5.31369248035915  3.31182795698925 5.18013468013468  3.74193548387097 5.18013468013468  C 4.17204301075269 5.18013468013468  4.53763440860215 5.31369248035915  4.83870967741936 5.58080808080808  L 9.58064516129032 9.80218855218855  L 20.1612903225806 0.400673400673401  C 20.4623655913979 0.133557800224466  20.8279569892473 0  21.258064516129 0  C 21.6881720430108 0  22.0537634408602 0.133557800224466  22.3548387096774 0.400673400673401  L 24.5483870967742 2.34680134680135  Z " fill-rule="nonzero" fill="#ffffff" stroke="none" transform="matrix(1 0 0 1 705 1041 )" />
  </g>
</svg>