<?xml version="1.0" encoding="utf-8"?>
<svg version="1.1" xmlns:xlink="http://www.w3.org/1999/xlink" width="23px" height="23px" xmlns="http://www.w3.org/2000/svg">
  <defs>
    <mask fill="white" id="clip448">
      <path d="M 0 11.5  C 0 5.1930860992627  4.85302564845233 0.209724648103247  11.1025422279251 0.00645036395326315  C 11.2344171507366 0.00216094729353244  11.3669139007375 0  11.5 0  C 17.9400000000001 0  23 5.05999999999995  23 11.5  C 23 17.9400000000001  17.9400000000001 23  11.5 23  C 5.05999999999995 23  0 17.9400000000001  0 11.5  Z " fill-rule="evenodd" />
    </mask>
  </defs>
  <g transform="matrix(1 0 0 1 -1646 -1307 )">
    <path d="M 0 11.5  C 0 5.1930860992627  4.85302564845233 0.209724648103247  11.1025422279251 0.00645036395326315  C 11.2344171507366 0.00216094729353244  11.3669139007375 0  11.5 0  C 17.9400000000001 0  23 5.05999999999995  23 11.5  C 23 17.9400000000001  17.9400000000001 23  11.5 23  C 5.05999999999995 23  0 17.9400000000001  0 11.5  Z " fill-rule="nonzero" fill="#ff6699" stroke="none" transform="matrix(1 0 0 1 1646 1307 )" />
    <path d="M 0 11.5  C 0 5.1930860992627  4.85302564845233 0.209724648103247  11.1025422279251 0.00645036395326315  C 11.2344171507366 0.00216094729353244  11.3669139007375 0  11.5 0  C 17.9400000000001 0  23 5.05999999999995  23 11.5  C 23 17.9400000000001  17.9400000000001 23  11.5 23  C 5.05999999999995 23  0 17.9400000000001  0 11.5  Z " stroke-width="4" stroke="#ff9933" fill="none" transform="matrix(1 0 0 1 1646 1307 )" mask="url(#clip448)" />
  </g>
</svg>