<?xml version="1.0" encoding="utf-8"?>
<svg version="1.1" xmlns:xlink="http://www.w3.org/1999/xlink" width="21px" height="15px" xmlns="http://www.w3.org/2000/svg">
  <g transform="matrix(1 0 0 1 -835 -2231 )">
    <path d="M 20.7895791583166 6.8944099378882  C 20.9298597194389 6.99792960662526  21 7.11697722567288  21 7.25155279503106  C 21 7.38612836438923  20.9298597194389 7.50517598343685  20.7895791583166 7.60869565217391  L 10.9839679358717 14.8447204968944  C 10.8436873747495 14.9482401656315  10.6823647294589 15  10.5 15  C 10.3176352705411 15  10.1563126252505 14.9482401656315  10.0160320641283 14.8447204968944  L 0.210420841683367 7.60869565217391  C 0.0701402805611225 7.50517598343685  0 7.38612836438923  0 7.25155279503106  C 0 7.11697722567288  0.0701402805611225 6.99792960662526  0.210420841683367 6.8944099378882  L 1.2625250501002 6.11801242236025  C 1.40280561122245 6.01449275362319  1.56412825651303 5.96273291925466  1.74649298597194 5.96273291925466  C 1.92885771543086 5.96273291925466  2.09018036072144 6.01449275362319  2.23046092184369 6.11801242236025  L 10.5 12.2204968944099  L 18.7695390781563 6.11801242236025  C 18.9098196392786 6.01449275362319  19.0711422845691 5.96273291925466  19.2535070140281 5.96273291925466  C 19.435871743487 5.96273291925466  19.5971943887776 6.01449275362319  19.7374749498998 6.11801242236025  L 20.7895791583166 6.8944099378882  Z M 20.7895791583166 0.93167701863354  C 20.9298597194389 1.0351966873706  21 1.15424430641822  21 1.2888198757764  C 21 1.42339544513457  20.9298597194389 1.54244306418219  20.7895791583166 1.64596273291925  L 10.9839679358717 8.88198757763975  C 10.8436873747495 8.98550724637681  10.6823647294589 9.03726708074534  10.5 9.03726708074534  C 10.3176352705411 9.03726708074534  10.1563126252505 8.98550724637681  10.0160320641283 8.88198757763975  L 0.210420841683367 1.64596273291925  C 0.0701402805611225 1.54244306418219  0 1.42339544513457  0 1.2888198757764  C 0 1.15424430641822  0.0701402805611225 1.0351966873706  0.210420841683367 0.93167701863354  L 1.2625250501002 0.15527950310559  C 1.40280561122245 0.0517598343685288  1.56412825651303 0  1.74649298597194 0  C 1.92885771543086 0  2.09018036072144 0.0517598343685288  2.23046092184369 0.15527950310559  L 10.5 6.25776397515528  L 18.7695390781563 0.15527950310559  C 18.9098196392786 0.0517598343685288  19.0711422845691 0  19.2535070140281 0  C 19.435871743487 0  19.5971943887776 0.0517598343685288  19.7374749498998 0.15527950310559  L 20.7895791583166 0.93167701863354  Z " fill-rule="nonzero" fill="#7f7f7f" stroke="none" transform="matrix(1 0 0 1 835 2231 )" />
  </g>
</svg>