<?xml version="1.0" encoding="utf-8"?>
<svg version="1.1" xmlns:xlink="http://www.w3.org/1999/xlink" width="21px" height="13px" xmlns="http://www.w3.org/2000/svg">
  <g transform="matrix(1 0 0 1 -835 -2081 )">
    <path d="M 20.7895791583166 11.5734989648033  C 20.9298597194389 11.6632160110421  21 11.7663906142167  21 11.8830227743271  C 21 11.9996549344375  20.9298597194389 12.1028295376121  20.7895791583166 12.1925465838509  L 19.7374749498998 12.8654244306418  C 19.5971943887776 12.9551414768806  19.435871743487 13  19.2535070140281 13  C 19.0711422845691 13  18.9098196392786 12.9551414768806  18.7695390781563 12.8654244306418  L 10.5 7.57660455486543  L 2.23046092184369 12.8654244306418  C 2.09018036072144 12.9551414768806  1.92885771543086 13  1.74649298597194 13  C 1.56412825651303 13  1.40280561122245 12.9551414768806  1.2625250501002 12.8654244306418  L 0.210420841683367 12.1925465838509  C 0.0701402805611225 12.1028295376121  0 11.9996549344375  0 11.8830227743271  C 0 11.7663906142167  0.0701402805611225 11.6632160110421  0.210420841683367 11.5734989648033  L 10.0160320641283 5.30227743271221  C 10.1563126252505 5.21256038647343  10.3176352705411 5.16770186335404  10.5 5.16770186335404  C 10.6823647294589 5.16770186335404  10.8436873747495 5.21256038647343  10.9839679358717 5.30227743271221  L 20.7895791583166 11.5734989648033  Z M 20.7895791583166 6.40579710144928  C 20.9298597194389 6.49551414768806  21 6.59868875086266  21 6.71532091097308  C 21 6.83195307108351  20.9298597194389 6.93512767425811  20.7895791583166 7.02484472049689  L 19.7374749498998 7.69772256728778  C 19.5971943887776 7.78743961352657  19.435871743487 7.83229813664596  19.2535070140281 7.83229813664596  C 19.0711422845691 7.83229813664596  18.9098196392786 7.78743961352657  18.7695390781563 7.69772256728778  L 10.5 2.40890269151139  L 2.23046092184369 7.69772256728778  C 2.09018036072144 7.78743961352657  1.92885771543086 7.83229813664596  1.74649298597194 7.83229813664596  C 1.56412825651303 7.83229813664596  1.40280561122245 7.78743961352657  1.2625250501002 7.69772256728778  L 0.210420841683367 7.02484472049689  C 0.0701402805611225 6.93512767425811  0 6.83195307108351  0 6.71532091097308  C 0 6.59868875086266  0.0701402805611225 6.49551414768806  0.210420841683367 6.40579710144928  L 10.0160320641283 0.134575569358178  C 10.1563126252505 0.0448585231193916  10.3176352705411 0  10.5 0  C 10.6823647294589 0  10.8436873747495 0.0448585231193916  10.9839679358717 0.134575569358178  L 20.7895791583166 6.40579710144928  Z " fill-rule="nonzero" fill="#7f7f7f" stroke="none" transform="matrix(1 0 0 1 835 2081 )" />
  </g>
</svg>