<?xml version="1.0" encoding="utf-8"?>
<svg version="1.1" xmlns:xlink="http://www.w3.org/1999/xlink" width="23px" height="23px" xmlns="http://www.w3.org/2000/svg">
  <defs>
    <mask fill="white" id="clip1271">
      <path d="M 0 11.5  C 0 5.05999999999995  5.06 0  11.5 0  C 17.94 0  23 5.05999999999995  23 11.5  C 23 17.9400000000001  17.94 23  11.5 23  C 6.02836818678696 23  1.55292386357058 19.3473125366791  0.330715130636634 14.2989857103231  C 0.114408899700436 13.405533946383  0 12.468368186787  0 11.5  Z " fill-rule="evenodd" />
    </mask>
  </defs>
  <g transform="matrix(1 0 0 1 -302 -673 )">
    <path d="M 0 11.5  C 0 5.05999999999995  5.06 0  11.5 0  C 17.94 0  23 5.05999999999995  23 11.5  C 23 17.9400000000001  17.94 23  11.5 23  C 6.02836818678696 23  1.55292386357058 19.3473125366791  0.330715130636634 14.2989857103231  C 0.114408899700436 13.405533946383  0 12.468368186787  0 11.5  Z " fill-rule="nonzero" fill="#ff6699" stroke="none" transform="matrix(1 0 0 1 302 673 )" />
    <path d="M 0 11.5  C 0 5.05999999999995  5.06 0  11.5 0  C 17.94 0  23 5.05999999999995  23 11.5  C 23 17.9400000000001  17.94 23  11.5 23  C 6.02836818678696 23  1.55292386357058 19.3473125366791  0.330715130636634 14.2989857103231  C 0.114408899700436 13.405533946383  0 12.468368186787  0 11.5  Z " stroke-width="4" stroke="#ff9933" fill="none" transform="matrix(1 0 0 1 302 673 )" mask="url(#clip1271)" />
  </g>
</svg>