<?xml version="1.0" encoding="utf-8"?>
<svg version="1.1" xmlns:xlink="http://www.w3.org/1999/xlink" width="18px" height="20px" xmlns="http://www.w3.org/2000/svg">
  <g transform="matrix(1 0 0 1 -442 -727 )">
    <path d="M 451 728  C 455.48 728  459 731.96  459 737  C 459 742.04  455.48 746  451 746  C 446.52 746  443 742.04  443 737  C 443 731.96  446.52 728  451 728  Z " fill-rule="nonzero" fill="#ff6699" stroke="none" />
    <path d="M 451 728  C 455.48 728  459 731.96  459 737  C 459 742.04  455.48 746  451 746  C 446.52 746  443 742.04  443 737  C 443 731.96  446.52 728  451 728  Z " stroke-width="2" stroke="#ff9933" fill="none" />
  </g>
</svg>