<?xml version="1.0" encoding="utf-8"?>
<svg version="1.1" xmlns:xlink="http://www.w3.org/1999/xlink" width="19px" height="21px" xmlns="http://www.w3.org/2000/svg">
  <defs>
    <mask fill="white" id="clip203">
      <path d="M 0 10.5  C 0 4.61999999999995  4.18 0  9.5 0  C 14.82 0  19 4.61999999999995  19 10.5  C 19 16.38  14.82 21  9.5 21  C 4.97995632821532 21  1.282850148167 17.6649375334896  0.273199455743306 13.0555956485559  C 0.0945116997525341 12.2398353423497  0 11.3841622575011  0 10.5  Z " fill-rule="evenodd" />
    </mask>
  </defs>
  <g transform="matrix(1 0 0 1 -302 -672 )">
    <path d="M 0 10.5  C 0 4.61999999999995  4.18 0  9.5 0  C 14.82 0  19 4.61999999999995  19 10.5  C 19 16.38  14.82 21  9.5 21  C 4.97995632821532 21  1.282850148167 17.6649375334896  0.273199455743306 13.0555956485559  C 0.0945116997525341 12.2398353423497  0 11.3841622575011  0 10.5  Z " fill-rule="nonzero" fill="#ff6699" stroke="none" transform="matrix(1 0 0 1 302 672 )" />
    <path d="M 0 10.5  C 0 4.61999999999995  4.18 0  9.5 0  C 14.82 0  19 4.61999999999995  19 10.5  C 19 16.38  14.82 21  9.5 21  C 4.97995632821532 21  1.282850148167 17.6649375334896  0.273199455743306 13.0555956485559  C 0.0945116997525341 12.2398353423497  0 11.3841622575011  0 10.5  Z " stroke-width="4" stroke="#ff9933" fill="none" transform="matrix(1 0 0 1 302 672 )" mask="url(#clip203)" />
  </g>
</svg>