<?xml version="1.0" encoding="utf-8"?>
<svg version="1.1" xmlns:xlink="http://www.w3.org/1999/xlink" width="19px" height="21px" xmlns="http://www.w3.org/2000/svg">
  <g transform="matrix(1 0 0 1 -443 -760 )">
    <path d="M 452.5 761  C 457.26 761  461 765.18  461 770.5  C 461 775.82  457.26 780  452.5 780  C 447.74 780  444 775.82  444 770.5  C 444 765.18  447.74 761  452.5 761  Z " fill-rule="nonzero" fill="#ff6699" stroke="none" />
    <path d="M 452.5 761  C 457.26 761  461 765.18  461 770.5  C 461 775.82  457.26 780  452.5 780  C 447.74 780  444 775.82  444 770.5  C 444 765.18  447.74 761  452.5 761  Z " stroke-width="2" stroke="#ff9933" fill="none" />
  </g>
</svg>