<?xml version="1.0" encoding="utf-8"?>
<svg version="1.1" xmlns:xlink="http://www.w3.org/1999/xlink" width="457px" height="23px" xmlns="http://www.w3.org/2000/svg">
  <defs>
    <mask fill="white" id="clip128">
      <path d="M 0 23  L 0 0  L 88.6885245901639 0  L 457 0  L 457 23  L 88.6885245901639 23  L 0 23  Z " fill-rule="evenodd" />
    </mask>
  </defs>
  <g transform="matrix(1 0 0 1 -390 -655 )">
    <path d="M 0 23  L 0 0  L 88.6885245901639 0  L 457 0  L 457 23  L 88.6885245901639 23  L 0 23  Z " fill-rule="nonzero" fill="#ffffff" stroke="none" transform="matrix(1 0 0 1 390 655 )" />
    <path d="M 0 23  L 0 0  L 88.6885245901639 0  L 457 0  L 457 23  L 88.6885245901639 23  L 0 23  Z " stroke-width="2" stroke="#797979" fill="none" transform="matrix(1 0 0 1 390 655 )" mask="url(#clip128)" />
  </g>
</svg>